<svg version="1.0" xmlns="http://www.w3.org/2000/svg" width="1216" height="1216" viewBox="0 0 912 912"><path d="M585.9.4c-.2.2-3.1.6-6.4 1-8.9.9-13.8 1.6-15.5 2.1-.8.2-3.1.7-5 1-7.3 1.2-26.8 6.9-32.5 9.5-1.1.5-4.5 1.9-7.5 3.2-8.8 3.5-24.2 11.9-26.7 14.4-.8.7-1.8 1.4-2.3 1.4-.5 0-1.5.6-2.2 1.3-.7.7-2.9 2.4-4.8 3.7-6.5 4.6-18.5 15.9-25.6 24-8.4 9.8-23.4 34.5-23.4 38.6 0 .8-.5 1.4-1.2 1.4-.6 0-.8.3-.5.6.3.4.1 1.6-.4 2.7-1.4 2.6-7.5 23.3-8.4 28.3-1.8 10.7-2.9 24.2-2.9 36.4 0 10.8 1 27.6 1.8 32 .3 1.4.7 4.3 1 6.5.3 2.2.8 5.1 1 6.5 1.6 7.3 2.7 13 3.2 15.5.3 1.6.7 3.2.9 3.5.2.4.7 2.2 1 4.1.8 4.7 9.3 33 10.5 35.1.6 1 1 2.3 1 2.9 0 .6 2 6.2 4.5 12.6 4.5 11.5 5.1 14 6.1 28.8.8 11.5 1 13.4 1.5 13.9.3.3.4-5.8.3-13.4l-.2-14 3.1-4.3c3.5-4.8 3.4-4.7 10.8-11 3.1-2.6 6.1-4.7 6.7-4.7.6 0 1.2-.4 1.4-.8.2-.5 5.9-4.5 12.8-9s13-8.5 13.5-8.9c.6-.5 2.6-2 4.5-3.3 4.3-3 3.4-2.3 16.5-12.7 6.1-4.8 13-10.6 15.5-12.8 7.4-6.6 32.2-31.6 37.7-38 2.8-3.3 6.2-7.1 7.4-8.5 1.2-1.4 4.7-5.7 7.8-9.5 3.1-3.9 5.9-7.2 6.2-7.5 1.1-.9 12.7-18.5 17.4-26.5 7.2-12.2 18-32.5 31.6-59.5 2.3-4.7 4.6-8.7 4.9-9 .4-.3 1-1.4 1.3-2.4 1.3-3.4 15.6-27 18.2-30 1.4-1.6 2.5-3.2 2.5-3.5.1-1.8 14.4-16.6 19.8-20.3 4.1-2.8 4.7-4.8 1.6-4.8-.8 0-2.2-.4-3.2-1-1.8-1-15.7-6-18.2-6.5-.8-.2-5.3-1.3-10-2.5-4.6-1.2-9.6-2.3-11-2.5-1.4-.2-4.3-.7-6.5-1.1-2.2-.3-4.9-.8-6-.9-1.1-.2-2-.4-2-.5 0-.8-50.7-2.4-51.6-1.6z"/><path d="M228.6 198.8c-.2.1-3.2.4-6.7.7-14 1.1-16 1.4-32.6 5.1-10.1 2.2-22.7 6-27.8 8.4-1.1.5-4.9 2.1-8.5 3.6-10.6 4.3-26.3 12.8-36.4 19.6-5.5 3.7-17.5 12.6-20 14.8-11.2 9.7-20.1 18.5-28.6 28.6-6.6 7.7-20 27.4-20 29.3 0 .5-.4 1.1-.8 1.3-.9.3-6.9 11.7-11.7 22.3-2.7 5.8-9.2 23.1-10.1 26.7-.2 1-.6 2.6-.9 3.5-3.4 12.8-4.5 17.7-5.1 22.3-1.1 8.7-1.2 9.5-1.4 9.5-.1 0-.5 2.7-.8 6-1.2 12.7-.4 53.4 1.3 63 .3 1.6.7 4.3.9 6 .2 1.6.7 4.6 1.1 6.5.8 4.7 1.3 7.6 2 13 .3 2.5 1.1 6.3 1.7 8.5.6 2.2 1.3 4.9 1.5 6 .1 1.1 1 4.4 1.9 7.2.9 2.9 1.7 5.8 1.8 6.5.7 3.1 2 7.9 4.4 15.3 1.4 4.4 2.7 8.2 2.7 8.5.1.3.7 1.8 1.3 3.3.7 1.6 1.2 3.1 1.2 3.4 0 .3 1.6 4.7 3.6 9.7 5.7 14.3 15 33.7 24.2 50.1 2.5 4.4 5 9 5.6 10.2.6 1.3 1.4 2.3 1.9 2.3.4 0 .7.5.7 1 0 1.3 17 27.4 18.1 27.8.5.2.9.8.9 1.3 0 1 5.8 8.9 19.5 26.4 17.8 22.7 42.9 49.5 71.1 76.2 7.7 7.2 19.4 17.6 21.5 19.1 1 .7 3 2.5 4.6 4 1.6 1.5 4.6 4 6.8 5.7 2.1 1.6 5.9 4.9 8.4 7.2s4.8 4 5 3.7c.4-.4-3.5-4.2-10.5-9.9-2.6-2.2-5.6-4.8-6.6-5.8-1-.9-1.8-1.5-1.8-1.3 0 .3-1.3-.8-2.8-2.2-1.5-1.5-6.1-5.6-10.2-9.2-7.8-6.8-52-50.4-52-51.2 0-.3-1.8-2.5-4.1-4.9-2.2-2.4-5.9-6.6-8.2-9.3-2.3-2.7-4.9-5.7-5.7-6.5-2.1-2.3-6-7.1-9-11.1-1.4-1.8-3-3.8-3.5-4.4-2.1-2.3-11.5-14.6-11.5-15.1 0-.4-1.2-2.1-4.5-5.9-.5-.7-1.4-1.9-2-2.7-.5-.8-4.9-7.4-9.6-14.5-4.7-7.1-10.8-16.5-13.4-20.9-5.1-8.3-21.2-39.6-25.8-50-3.3-7.6-11.3-29-12.3-33-.4-1.7-1.1-3.6-1.7-4.3-.5-.6-.6-1.2-.2-1.2.4 0 .2-.7-.5-1.5s-1-1.5-.7-1.5c.3 0 .1-1.5-.4-3.3-1.4-4.6-1.7-5.7-2.9-10.7-.6-2.5-1.3-5.2-1.7-6-.3-.8-.6-1.8-.5-2.2.1-.4-.2-1.8-.7-3.1-.5-1.3-1.2-3.9-1.5-5.8-.3-1.9-.7-4.3-1-5.4-.4-1.9-1.4-9.1-2.1-14.3-.2-1.2-.9-5.4-1.5-9.2-.6-3.8-1.2-11.7-1.3-17.5-.1-5.8-.5-10.5-.8-10.5-.6 0-.3-30.1.4-36.5.6-5.1 1.6-11.8 2.7-17.5.5-2.4.6-4.8.4-5.2-.3-.5 0-.8.7-.8s1-.3.7-.6c-1.1-1.1 9-34.4 12.2-40.2.5-.9 3-6 5.5-11.2 2.5-5.2 5.1-10.4 5.8-11.5 3.5-6 16-24.7 17.3-26 .9-.8 1.3-1.5 1-1.5-1.6 0 26.2-28.5 32.2-33 1.9-1.4 3.9-3 4.5-3.5 3.4-2.9 10.1-7.6 18.2-12.7 4.9-3.2 9.6-6.2 10.3-6.8.6-.6 1.2-.8 1.2-.4 0 .3.6.1 1.4-.5 3.4-2.9 29.1-14.3 30-13.4.3.4.6.1.6-.5 0-.7.3-1.1.8-1 .4.1 3.1-.6 6-1.6s5.8-1.9 6.5-2c.7-.2 1.9-.5 2.7-.8 5.7-2.1 18-4.6 32-6.4 10.4-1.4 36-1.9 45.5-.9 2.2.2 6.5.6 9.5.9 3 .3 6.6.8 8 1.1 1.4.3 4.1.8 6 1.1 1.9.3 6.2 1.2 9.5 2.1 3.3.8 7 1.7 8.2 1.9 8.9 1.7 45.5 16.9 47.5 19.9.4.5.8.6.8.1s.8-.2 1.8.6c.9.8 3.7 2.6 6.2 4 5.2 3 22 14.9 26.5 18.7 9.2 8 27.2 27.3 33.9 36.2 4.3 5.7 8.4 11.2 9.2 12.1.7 1 1.1 1.8.8 1.8-.3 0 .6 1.5 2 3.3 1.5 1.9 2.6 3.9 2.6 4.4 0 .6.7 1.6 1.5 2.3.8.7 1.5 2.1 1.5 3.1 0 1.1.4 1.9.9 1.9 1.6 0 15.3 31.7 16.5 38.2.2 1.5 1 3.7 1.7 5 .7 1.2 1.2 2.4 1.1 2.5-.1.2-.2.4-.1.5 0 .2.2 1.1.4 2.1.6 3.1 1.2 3 2.4-.4.6-1.8 1.3-3 1.6-2.7.3.3.1 1.6-.4 2.9-.5 1.3-1.2 3.3-1.6 4.4-.6 1.7-.8 1.6-2.1-1.5-.8-1.9-1.6-4.1-1.8-5-.3-1.7-.4-2-5.2-13.8-3.8-9.2-13.8-28.8-15.5-30.2-.3-.3-1.8-2.5-3.4-4.9-1.5-2.5-3.1-4.9-3.6-5.5-.5-.6-3.7-4.7-7.1-9.1-6.5-8.4-22.2-24.6-29.6-30.5-2.4-1.9-5.3-4.3-6.5-5.3-1.2-1-3.6-2.7-5.4-3.8-1.8-1.1-3.3-2.6-3.3-3.1 0-.6-.3-.8-.7-.5-.3.4-2.1-.4-3.9-1.8-1.8-1.4-3.6-2.5-4-2.5-.4 0-1.5-.6-2.3-1.4-3.7-3.2-32.8-17.1-38-18.1-1-.2-3.4-1-5.4-1.9-2-.8-3.7-1.2-3.7-.9 0 .3-.7 0-1.5-.7-.9-.7-1.8-1-2.2-.7-.3.4-1.1.3-1.7-.2-1.8-1.4-23.6-5.5-36.1-6.8-9.4-.9-46-.4-46 .7 0 .1-1.3.3-3 .5-1.6.1-3 .3-3 .5 0 .1-1.1.3-2.5.4-5.8.7-11.4 1.9-19 4.1-3 .9-6.2 1.8-7 2-5.9 1.4-21.4 7.6-31.5 12.5-28.5 13.9-49.7 31.1-73 59.1-3.2 3.8-13.2 18.4-15.5 22.6-1.1 2.1-3.1 5.6-4.3 7.8-1.2 2.2-3.7 7.4-5.5 11.5-1.9 4.1-3.8 8.4-4.3 9.5-.9 2.2-2.5 6.4-2.9 8-.2.5-1.3 3.9-2.6 7.5-4 11.7-8.2 33.7-8.9 47.9-.2 3.6-.4 6.6-.5 6.6-.1 0-.3 1-.4 2.2-.2 1.3.1 2.3.5 2.3s.4 1.3-.1 2.9c-.4 1.6-.6 3.1-.4 3.3.2.3.6 6.3.9 13.4.3 7.1.7 13.8.9 14.9.2 1.1.7 5.1 1.1 9 .4 3.8.9 7.9 1.1 9 .9 4.5 1.6 8.1 1.9 10.5.2 1.4 1.3 6.8 2.5 12s2.3 10.2 2.5 11c.2.8.4 1.5.5 1.5.1 0 .3.8.6 1.7 10.2 42.2 37.7 96.4 71.7 141.3 3.8 5 18 22.9 19.1 24.1.6.6 3.4 3.7 6.1 7 15.3 18.1 46 48.7 66.5 66.4 4.1 3.6 7.7 6.7 8 7 .3.3 4.6 3.9 9.5 8 5 4.1 9.2 7.7 9.5 8 .3.3 2.3 1.8 4.5 3.5 2.2 1.6 4.2 3.2 4.5 3.5.3.3 3.4 2.8 7 5.5 3.6 2.8 6.7 5.2 7 5.5.3.3 2.9 2.3 5.9 4.4 3 2.1 5.9 4.3 6.5 4.8 3.5 2.9 42.4 29.8 43.2 29.8.3 0 1.2.7 2.1 1.5 3.4 3.4 2.4-.7-3.2-14-.7-1.7-2.5-6.2-3.9-10-1.5-3.9-3.3-8.4-4.1-10-2.6-5.8-8.5-22.3-8.5-23.7 0-.8-.4-1.8-.9-2.3-.9-1.1-8.1-23.5-10.3-32-.7-2.8-1.7-5.3-2.3-5.7-.5-.4-.7-1-.3-1.3.3-.3-.5-4.4-1.7-9-1.3-4.5-2.5-9.8-2.8-11.6-.3-1.9-.8-4.8-1.2-6.4-3.6-18.3-4-25.4-3.8-71 .3-88.4 1.4-204.1 1.9-207.5.8-5.8 4-7.8 11.5-7.1.9 0 2.4 1.2 3.3 2.6 1.7 2.6 1.6.7 3.1 67.5 1.8 79.5 2.6 119.7 2.9 140.9.2 18.1.1 17.9 7.3 18.5 6.1.5 11.3-1.3 11.4-3.8.2-4.9 1.8-86.3 2.4-126.1.3-16.5.6-30.2.6-30.5 0-.3.3-10.6.5-23 .7-42.1.7-41.7 4-44.5 4.2-3.6 10.7-2.4 12.5 2.4 1.1 2.9 1.6 20.3 2.4 87.1.3 25.6.7 47.8.8 49.5.1 1.6-.2 3.6-.7 4.2-.4.7-.5 1.3 0 1.3s1 15 1.2 33.3c.4 40 .6 47.4 1.4 48.3 1.2 1.2 13.5 1.3 17.2.2l3.6-1.1.1-21.6c.1-11.9.3-36.5.5-54.6.2-18.2.7-51.5.9-74 1-77.2.7-72.1 3.8-74.8 1.5-1.2 3.8-2.4 5.2-2.5 2.9-.2 7 2.1 8.1 4.6.7 1.7 1.1 16.6 1.7 67 .3 15.5.7 28.5 1 28.8.3.3.2 1.7-.3 3s-.6 2.4-.2 2.4c.4 0 .8 10.2.8 22.8.2 31.5 1.4 98.6 1.9 99 .8.8 16.1 1.3 17.2.5 1.2-.8 2.4-43.2 3.7-124.5.2-12.4.7-23.2 1.1-23.9.6-.8.4-1-.5-.4s-1.1.4-.5-.5c.7-1.1 1.2-18.8 1.7-59.5.1-8 .6-12.9 1.5-14.8 1.5-3 4.9-4.8 7.9-4.2 1.1.2 2.5.4 3.1.4.7.1 2 1.3 3 2.7 1.8 2.9 2.1 17.6 2.6 131.6.1 24.7.5 44.8.8 44.8.4 0 .3 1.5-.1 3.4s-.5 3.9-.1 4.4c.9 1.4.7 104.5-.2 111.7-3 24.1-8.4 41.6-20.1 65-2.7 5.5-5 10.2-5 10.5-.1.3-2.7 6.3-5.9 13.4-5.5 12.2-11.5 27.2-12.2 30.7-.2.9-.7 3.2-1.2 5-.5 1.9-.9 8.7-.9 15.3l.1 11.8 6 3.3c3.3 1.8 8.5 4.6 11.5 6.1 3 1.6 5.7 3.1 6 3.4.5.5 18.3 9.4 33.8 16.9 4.5 2.2 8.2 3.5 8.2 3s.3-.8.8-.7c.9.2 3.1-.7 11.7-4.5 11.7-5.3 54.5-26.9 54.5-27.6 0-.5-18.3-26.6-20.7-29.6-1.7-2-7.3-10.6-7.3-11.1 0-.3-.9-1.8-2-3.3-4.8-6.8-11.3-21.4-15.1-34.1-1.9-6.6-2.5-8.7-3.5-14.9-.3-1.8-.8-4.3-1-5.5-1.7-8.5-2.3-33-1-47.1.3-3.9.8-10.4 1.1-14.5.3-4.1.8-9.3 1-11.5 1.4-13.5 1.6-16.1 3-31.7 1.1-13.8 1.7-18.5 2.5-21.1.6-1.7.5-2.7-.1-2.7s-.8-.3-.5-.8c.5-.9 1.6-7.9 2.1-13.7.2-2.2.6-5.6.9-7.5.4-3.2 1.2-9.4 2.2-18.9.2-1.9.6-5 .9-7 .9-5.4 1.6-10.2 2-14.1.2-1.9.6-4.4.8-5.5.3-1.1.8-4 1.1-6.5.3-2.5.8-5.6 1-7 .7-3.9 2.7-15.2 3.1-17.8.2-1.2.6-3 .9-4 .3-.9.7-3.5 1.1-5.7.3-2.1 1.9-9.8 3.6-17 1.7-7.1 3.2-13.7 3.4-14.5.2-.8.4-1.5.5-1.5.1 0 .3-.8.5-1.8s1.3-5.1 2.5-9c1.2-4 2.3-7.7 2.5-8.2.1-.6.5-1.9.9-3 .5-1.1 1.7-4.5 2.8-7.5 6-16.4 15.3-33.2 23.5-42.5 2.7-3.1 10.9-9.5 12-9.5.6 0 1.6-.6 2.2-1.4 1-1.1 2.7-1.7 7.6-2.6.2-.1 1.8-.5 3.5-1 2.5-.7 3.5-.5 5.8 1.5l2.7 2.3.1 211.9c.1 178.4.3 211.7 1.5 211.5 1.8-.5 13.3-7.5 13.7-8.5.2-.4.8-.7 1.4-.7.5 0 2.4-1.1 4.2-2.5 1.8-1.4 3.6-2.5 4-2.5.4 0 3-1.7 5.9-3.8 2.9-2 6-4.2 6.9-4.7.9-.6 5.1-3.4 9.5-6.4 4.3-3 9.2-6.4 10.8-7.5 1.7-1.2 3.4-2.7 3.8-3.4.4-.6 1.2-1.2 1.7-1.2.8 0 14.8-10.1 18.7-13.5.7-.5 3.3-2.6 5.9-4.5 9.1-6.9 31.3-25.1 38.4-31.6 14.2-12.9 19.8-18.2 32.5-30.9 17-17 25.5-26.2 37-40 2.8-3.3 5.3-6.2 5.8-6.3.4-.2.7-1 .7-1.8s.3-1.4.8-1.4c.4 0 3.2-3.3 6.2-7.3 3-3.9 5.8-7.4 6.2-7.5.5-.2.8-1 .8-1.7s.4-1.5.8-1.7c.5-.2 2.8-3.2 5.3-6.8 2.4-3.6 4.6-6.7 4.9-7 .3-.3 2-2.8 3.8-5.5 1.7-2.8 3.5-5.5 4-6 .9-1.2 12.6-21 15.2-25.8 2.6-4.7 13.4-26.1 13.5-26.7.1-.3 1.1-2.5 2.2-5 7.8-17.4 17.8-45.5 19.8-56 .2-.8.8-3.5 1.5-6s1.4-5.4 1.6-6.5c1.3-5.6 3.5-17.4 4-20.5.2-1.9.7-4.5.9-5.7.7-2.9 2.2-17.7 2.9-27.3.5-6.8.6-33 .2-38.5-.8-8.9-1.8-18-2.2-18.6-.2-.4-.7-2.4-1-4.5-.3-2.2-.7-4.4-.9-4.9-5.5-24.1-13.3-44.1-24.4-62.4-2.8-4.6-5.1-8.8-5.1-9.3 0-.4-.4-.8-1-.8-.5 0-1-.5-1-1 0-.6-.5-1.6-1-2.3-2.3-2.7-4.6-5.6-6-7.7-1.8-2.7-3.5-4.6-11.3-13.4-7.2-8.1-16.3-16.8-23-21.9-1.6-1.2-3.4-2.7-4-3.2-.7-.6-2.8-2.2-4.7-3.5-1.9-1.3-3.7-2.7-4-3-1-1.1-14-9-14.9-9-.5 0-1.1-.4-1.3-.8-.3-1-21.9-11.5-25.8-12.7-1.4-.4-2.9-1.1-3.5-1.5-.5-.3-6.2-2.1-12.5-4-6.3-1.8-12.2-3.5-13-3.8-1.7-.6-2.1-.7-10.5-2.2-14.7-2.6-20.1-3-38-3-21.3 0-26.7.5-45.5 4.7-6.3 1.4-15.3 3.8-20 5.4-4.7 1.6-8.9 3.1-9.5 3.3-.5.1-2.3.9-4 1.6-1.6.7-3.2 1.4-3.5 1.5-2.4.6-5.6 1.9-6 2.4-.3.3-4.2 2.4-8.7 4.6-4.6 2.2-8.3 4.3-8.3 4.7 0 .5-.5.8-1.1.8-1.5 0-16.9 10.1-16.9 11.1 0 .4-1 1.1-2.2 1.5-1.3.4-2.7 1.2-3.3 1.9-.5.6-3.7 3.4-6.9 6.1-21.1 17.5-39.3 40.7-52.1 66.4-3.6 7.3-6.5 13.6-6.5 14.3 0 .2-.8 2.2-1.7 4.3-.9 2.2-1.6 4.2-1.5 4.6.1.5-.2.8-.8.8-.5 0-1-.4-1-.8 0-1.3 3.6-11.1 4.3-11.9.4-.3.7-1.3.7-2.1 0-1.8 2.9-8.7 9.6-22.7 5-10.4 19.9-33.8 24.9-39.1.5-.6 2.6-3 4.5-5.4 4.4-5.5 20.1-21.3 26.1-26.2 2.4-2 5.5-4.5 6.9-5.7 2.9-2.4 4-3.2 6.2-4.6.8-.6 4.9-3.2 8.9-6 10.7-7.1 36.3-20 44.4-22.2.6-.1 4.4-1.4 8.5-2.9 4.1-1.4 8.3-2.8 9.2-3 1-.2 2.6-.6 3.6-.8 5.4-1.3 11.9-2.8 13.2-3.1 6.1-1.1 9.6-1.6 13.7-2.1 2.7-.2 6.6-.7 8.8-.9 6.1-.8 43-.4 43 .5 0 .1 1.7.3 3.8.6 6.6.6 21 3.3 26.7 5 3 .8 6.2 1.6 7 1.8.8.1 2.2.5 3 .9.8.3 3.1 1 5 1.6 11.1 3.1 32.6 12.8 40.7 18.2 2.3 1.6 4.4 2.9 4.8 2.9.3 0 3.9 2.2 7.9 4.9 23.9 16.2 45.9 38.3 62.2 62.8 5.7 8.6 16.6 29.1 20.1 37.8 3.8 9.6 7 19.7 8.8 27.8.2.9.7 2.2 1 2.8.4.5.9 2.9 1.1 5.2.3 2.3.7 4.9 1.1 5.7.3.8.7 2.8.9 4.4.2 1.6.6 4.1.9 5.5 2.1 10.2 2.6 35.7 1.2 59.1-.7 12.2-1.1 15.9-2.3 21-.3 1.4-.8 4.3-1 6.5-.2 2.2-.6 5.1-.9 6.5-.2 1.3-.7 4-1 6-.3 2-.8 4.7-1 6-.3 1.4-.8 4.1-1.1 6-.3 1.9-1 4.3-1.5 5.3-.5.9-.7 1.7-.3 1.7.3 0 .1.7-.6 1.5s-1 1.5-.7 1.5c.3 0-.1 2.4-.9 5.2-.8 2.9-1.7 6.2-2 7.3-.8 2.9-1 3.8-1.7 5.5-.3.8-1.3 4.2-2.2 7.5-1.7 5.9-7.3 21.7-10.2 28.5-.8 1.9-1.9 4.4-2.3 5.5-1.8 4.4-21.2 43.2-23 46-2.6 4.1-4.1 6.5-6.7 11.1-4.9 8.4-11.5 18.3-21.3 31.9-2.7 3.8-5.8 8.1-6.7 9.5-1 1.4-2 2.7-2.3 3-.3.3-2.1 2.5-4 5s-4 5.2-4.7 6c-2.3 2.9-11.8 14.5-12.8 15.6-.5.6-3.7 4.2-7 8-14.5 16.4-32.5 34.8-50 50.9-6 5.5-11.9 11-13.2 12.2-1.3 1.3-2.6 2.3-2.8 2.3-.2 0-2.9 2.5-6.2 5.5-3.2 3-6.4 5.5-7 5.5-.7 0-1.3.3-1.3.7 0 .5-2.8 3-6.1 5.8-3.4 2.7-6.7 5.4-7.3 6-.6.6-4.6 3.7-8.9 6.9-4.3 3.3-7.5 6.1-7.3 6.3.3.3 1.1 0 1.8-.6s2.9-2.5 4.8-4.1c1.9-1.6 3.8-3 4.1-3 .6 0 2.3-1.4 8.1-6.6 1.5-1.3 3.1-2.4 3.4-2.4.4 0 1.4-.8 2.3-1.8.9-1 3.6-3.3 6.1-5.2 2.5-1.9 5-3.9 5.6-4.5.6-.5 3.3-2.9 6-5.2 2.7-2.2 6.5-5.5 8.4-7.3 1.9-1.7 6.2-5.5 9.5-8.3 8.1-7.1 42.4-41.4 51-51.1 3.9-4.4 8-9 9.2-10.3 2.3-2.6 9-10.8 16.1-19.8 2.8-3.6 14-18.4 15.2-20.2.8-1.1 5.2-7.7 9.8-14.5 4.5-6.7 8.6-12.8 9-13.4.7-1 2-3.2 4.5-7.7.6-1.2 1.5-2.4 1.8-2.7 1-.8 20.5-39.6 24.2-48 4.6-10.4 5.6-13 4.9-13-.4 0-.2-.4.3-.8.6-.4 1.6-2.5 2.3-4.7.7-2.2 1.7-4.9 2.2-6 .8-2 4.2-12.1 4.6-14 .1-.6 2.1-7.7 4.4-15.9 3.6-12.9 6.5-26.5 8.5-40.1.3-2.2.8-4.7 1-5.5 3.4-11 4-70.5 1-85-.3-1.4-.8-4-1.1-5.9-.8-4.9-2.1-10.6-3.9-17.4-.6-1.9-1.3-4.9-1.9-7.5-.8-3.3-6.5-18.8-8-21.7-.8-1.6-1.3-3.2-1-3.7.3-.4.2-.8-.3-.8-.4 0-1.6-2-2.6-4.4-3-7.2-18.6-33.6-21.7-36.6-.3-.3-2.1-2.5-4-5s-4.2-5.4-5-6.5c-4-5.1-26.4-26.8-33.5-32.5-8.6-6.8-19.6-14.3-26.6-18.1-2.4-1.3-4.6-2.6-4.9-2.9-1.1-1.2-19.9-10-27.5-12.8-2.7-1-5.9-2.2-7-2.7-1.1-.4-2.4-.9-3-.9-.5-.1-3-.8-5.5-1.6-6.9-2.1-23.9-5.8-30-6.6-1.9-.3-4.6-.7-6-.9-16.2-3.2-50.8-2.1-71.7 2.1-4.3.9-8.4 1.6-9 1.7-.7 0-1.3.4-1.3.8s-.8.6-1.7.4c-1-.1-2.2 0-2.8.4-.5.3-1.4.6-2 .6-.5 0-4.4 1.1-8.5 2.5-4.1 1.3-7.8 2.3-8.2 2.2-.5-.1-.8.3-.8 1 0 .6-.3.9-.6.6-.5-.6-3.4.5-14.4 5.4-7.9 3.5-11.2 5.2-19.7 10-9.4 5.3-17.6 10.8-18.1 12-.2.4-.8.8-1.4.8-.6 0-2.4 1.1-4.2 2.5-1.7 1.4-4.4 3.5-6 4.8-7.4 5.8-25.2 23.3-31.2 30.7-1.6 1.9-3.1 3.7-3.4 4-.3.3-1.7 2.1-3 4-2.4 3.5-3.6 5-5.5 7.3-.6.7-2.2 3-3.5 5.2-1.3 2.2-2.6 4.2-2.9 4.5-.4.3-1.2 1.6-2 3-10.3 18-14.5 27-19.8 42-1.4 3.7-1.8 4.1-2.4 2.5-.4-1.1-1.7-4.7-3-8-5.4-14.3-21.3-44.4-24-45.3-.5-.2-.9-.9-.9-1.6 0-.7-.8-2.1-1.7-3.2-1-1-3.1-3.7-4.8-5.9-26.2-35.2-64.9-62.9-108-77.4-12.7-4.2-32.1-8.7-41.6-9.6-2.4-.2-4.4-.4-4.4-.5 0-.7-37.2-2-37.9-1.2z"/><path d="M234.6 795.4c.3.8 1.3 1.8 2.2 2.1 1 .3 3.4 2.1 5.5 4.1 2 1.9 3.7 3.2 3.7 2.7 0-.4-1.7-2.2-3.7-3.8-8.6-6.9-8.3-6.7-7.7-5.1zM249.8 807.5c1.7 1.4 3.3 2.5 3.7 2.5.3 0-.7-1.1-2.3-2.5-1.7-1.4-3.3-2.5-3.7-2.5-.3 0 .7 1.1 2.3 2.5zM255 811.4c0 .3.9 1 2 1.6 1.1.6 2 .8 2 .6 0-.3-.9-1-2-1.6-1.1-.6-2-.8-2-.6zM658.1 813c-1.3 1.1-1.9 2-1.4 2 .6 0 1.8-.9 2.8-2 2.3-2.5 1.7-2.5-1.4 0zM652 818.1c-1.7 1.3-1.8 1.7-.5 1 3.3-1.7 5.1-3.1 4-3.1-.5 0-2.1 1-3.5 2.1zM266.2 819.6c1 1 2 1.6 2.2 1.3.3-.3-.5-1.1-1.7-1.8-2.1-1.3-2.1-1.2-.5.5zM646.4 822.2l-1.9 2.3 2.3-1.9c1.2-1.1 2.2-2.1 2.2-2.3 0-.8-.8-.2-2.6 1.9zM638.4 828.2l-1.9 2.3 2.3-1.9c1.2-1.1 2.2-2.1 2.2-2.3 0-.8-.8-.2-2.6 1.9zM632.9 831.7c-1.3 1.6-1.2 1.7.4.4 1.6-1.3 2.1-2.1 1.3-2.1-.2 0-1 .8-1.7 1.7z"/></svg>