<svg width="110" height="197" viewBox="0 0 110 197" fill="none" xmlns="http://www.w3.org/2000/svg">
<path d="M26.9277 131.877C28.0176 131.877 28.5625 132.299 28.5625 133.143C28.5625 133.893 28.1523 134.338 27.332 134.479C26.8281 134.572 26.4648 134.73 26.2422 134.953C25.7617 135.422 25.0352 136.793 24.0625 139.066C19.4922 149.859 17.0781 155.59 16.8203 156.258L16.2227 157.752C15.7773 158.865 15.2266 159.422 14.5703 159.422C14.0195 159.422 13.6035 159.299 13.3223 159.053C13.0527 158.818 12.8301 158.443 12.6543 157.928L9.50781 150.123L4.84961 139.242C3.92383 137.074 3.25586 135.762 2.8457 135.305C2.44727 134.848 2.00781 134.531 1.52734 134.355C1.04688 134.168 0.71875 133.98 0.542969 133.793C0.367188 133.605 0.279297 133.359 0.279297 133.055C0.279297 132.75 0.425781 132.475 0.71875 132.229C1 131.971 1.36328 131.842 1.80859 131.842L4.30469 131.965C4.69141 131.965 5.07812 131.947 5.46484 131.912L7.57422 131.719C7.87891 131.684 8.23633 131.666 8.64648 131.666C9.06836 131.666 9.44336 131.789 9.77148 132.035C10.0996 132.27 10.2637 132.621 10.2637 133.09C10.2637 134.145 9.27344 134.672 7.29297 134.672H6.55469L14.166 154.166C14.2949 154.459 14.4238 154.559 14.5527 154.465C14.6816 154.371 14.7695 154.271 14.8164 154.166L22.4277 134.689C22.2637 134.701 22.1113 134.707 21.9707 134.707H21.5312C20.4648 134.707 19.7031 134.549 19.2461 134.232C18.7891 133.904 18.5605 133.523 18.5605 133.09C18.5605 132.645 18.7305 132.299 19.0703 132.053C19.4219 131.795 19.8027 131.666 20.2129 131.666C20.6348 131.666 20.9863 131.689 21.2676 131.736C21.5605 131.771 21.8594 131.807 22.1641 131.842C22.4805 131.865 22.8145 131.9 23.166 131.947C23.5293 131.982 23.9805 132 24.5195 132L26.9277 131.877ZM50.2539 152.373C51.0859 152.373 51.502 152.801 51.502 153.656C51.502 154.066 51.3379 154.482 51.0098 154.904C50.2129 155.947 49.6094 157.09 49.1992 158.332L48.9883 159C48.8477 159.516 48.7422 159.955 48.6719 160.318C48.6133 160.693 48.4551 160.975 48.1973 161.162C47.9512 161.35 47.6523 161.443 47.3008 161.443C46.9609 161.443 46.6504 161.285 46.3691 160.969C46.0996 160.652 45.9648 160.371 45.9648 160.125V159.633C45.9648 159.574 45.9707 159.516 45.9824 159.457C44.5645 159.211 43.0117 159.088 41.3242 159.088C39.543 159.029 38.0195 159 36.7539 159C35.4883 159 34.3105 159.047 33.2207 159.141C32.1426 159.234 31.3867 159.281 30.9531 159.281C29.9219 159.281 29.4062 158.801 29.4062 157.84C29.4062 157.172 29.957 156.715 31.0586 156.469C31.4336 156.387 31.8848 156.346 32.4121 156.346H33.8711V134.619H33.1855C30.9473 134.619 29.8281 134.08 29.8281 133.002C29.8281 132.111 30.6426 131.666 32.2715 131.666L40.1465 131.912C42.2559 131.912 44.0371 131.783 45.4902 131.525C45.4316 131.338 45.4023 131.139 45.4023 130.928C45.4023 130.705 45.5137 130.488 45.7363 130.277C45.959 130.055 46.2812 129.943 46.7031 129.943C47.7578 129.943 48.9473 131.754 50.2715 135.375C50.5176 136.055 50.6406 136.57 50.6406 136.922C50.6406 137.73 50.2773 138.135 49.5508 138.135C48.9062 138.135 48.3672 137.508 47.9336 136.254C47.6641 135.48 47.2305 134.941 46.6328 134.637C46.0469 134.32 45.2969 134.162 44.3828 134.162H43.9434C43.334 134.162 42.6191 134.197 41.7988 134.268C40.9785 134.338 40.3281 134.391 39.8477 134.426L38.3887 134.531C37.9082 134.566 37.4922 134.596 37.1406 134.619V142.354C39.9531 142.354 41.5586 142.318 41.957 142.248C42.3555 142.166 42.6484 142.049 42.8359 141.896C43.0234 141.732 43.1523 141.428 43.2227 140.982C43.3047 140.525 43.4922 140.191 43.7852 139.98C44.0781 139.758 44.377 139.646 44.6816 139.646C44.9863 139.646 45.25 139.74 45.4727 139.928C45.707 140.104 45.8242 140.355 45.8242 140.684C45.8242 141 45.7188 141.439 45.5078 142.002C45.2969 142.564 45.1914 143.127 45.1914 143.689C45.1914 144.24 45.2969 144.791 45.5078 145.342L45.9648 146.607C46.082 146.9 46.1406 147.229 46.1406 147.592C46.1406 147.943 46.0059 148.225 45.7363 148.436C45.4785 148.646 45.1562 148.752 44.7695 148.752C44.0078 148.752 43.5332 148.26 43.3457 147.275C43.1699 146.291 42.9707 145.658 42.748 145.377C42.5254 145.084 42.127 144.938 41.5527 144.938H37.1406V156.346C37.6445 156.357 38.1484 156.375 38.6523 156.398L40.2168 156.469C40.5332 156.492 40.8965 156.51 41.3066 156.521C41.7285 156.533 42.2207 156.551 42.7832 156.574C43.3574 156.598 44.0312 156.609 44.8047 156.609C45.5781 156.609 46.1582 156.48 46.5449 156.223C46.9316 155.965 47.4121 155.408 47.9863 154.553C48.5605 153.686 48.9941 153.105 49.2871 152.812C49.5801 152.52 49.9023 152.373 50.2539 152.373ZM74.3359 140.947C74.3359 137.771 72.8125 135.773 69.7656 134.953C68.3242 134.578 66.1328 134.391 63.1914 134.391C62.1836 134.391 61.4688 134.402 61.0469 134.426V147.346H64.4922C69.6836 147.346 72.7949 146.133 73.8262 143.707C74.166 142.91 74.3359 141.99 74.3359 140.947ZM62.6113 159L59.3594 158.895C58.9258 158.895 58.5859 158.9 58.3398 158.912L57.5664 158.947C57.1211 158.982 56.6465 159 56.1426 159C55.6504 159 55.252 158.877 54.9473 158.631C54.6426 158.373 54.4902 158.033 54.4902 157.611C54.4902 157.189 54.666 156.844 55.0176 156.574C55.3809 156.305 55.8613 156.17 56.459 156.17H57.8652V134.707C56.9863 134.883 56.2949 134.971 55.791 134.971C55.2988 134.971 54.8711 134.842 54.5078 134.584C54.1445 134.314 53.9629 134.016 53.9629 133.688C53.9629 132.645 54.5664 132.047 55.7734 131.895C56.9922 131.742 58.7793 131.666 61.1348 131.666C63.502 131.666 65.2246 131.695 66.3027 131.754C72.209 132.035 75.8242 133.986 77.1484 137.607C77.4883 138.557 77.6582 139.605 77.6582 140.754C77.6582 143.051 76.9668 144.979 75.584 146.537C74.2129 148.096 72.2559 149.121 69.7129 149.613C70.8496 151.488 71.7871 152.795 72.5254 153.533C73.9082 154.916 75.2559 155.742 76.5684 156.012C77.8809 156.281 78.6367 156.697 78.8359 157.26C78.8945 157.447 78.9238 157.693 78.9238 157.998C78.9238 158.303 78.7715 158.59 78.4668 158.859C78.1621 159.129 77.7285 159.264 77.166 159.264C75.9238 159.264 74.8281 158.982 73.8789 158.42C72.1797 157.412 70.8086 156.299 69.7656 155.08C68.7227 153.861 67.6621 152.15 66.584 149.947H61.0469V156.17H62.2773C63.0977 156.17 63.6719 156.316 64 156.609C64.3281 156.891 64.4922 157.178 64.4922 157.471C64.4922 158.49 63.8652 159 62.6113 159ZM87.959 148.26C90.5488 150.252 91.9961 151.4 92.3008 151.705L92.9336 152.355C93.2969 152.695 93.6016 152.865 93.8477 152.865C94.0938 152.865 94.3105 152.807 94.498 152.689C94.6855 152.561 94.9082 152.361 95.166 152.092C95.4355 151.811 95.7344 151.535 96.0625 151.266L99.9824 148.242L95.1836 137.889C94.8672 137.197 94.6152 136.676 94.4277 136.324C94.252 135.973 94.0879 135.797 93.9355 135.797C93.7949 135.797 93.6484 135.926 93.4961 136.184C93.3555 136.43 93.168 136.816 92.9336 137.344L87.959 148.26ZM81.9121 158.859L79.3105 159C78.3965 159 77.9395 158.631 77.9395 157.893C77.9395 157.412 78.3203 156.879 79.082 156.293C80.4414 155.215 81.707 153.539 82.8789 151.266L88.9961 138.961L91.1758 134.338C91.6914 133.201 92.1309 132.416 92.4941 131.982C92.8691 131.537 93.3438 131.314 93.918 131.314C94.4922 131.314 94.9727 131.508 95.3594 131.895C95.7578 132.281 96.2324 133.066 96.7832 134.25L100.633 142.477C103.926 149.016 105.678 152.479 105.889 152.865L106.539 154.043C107.055 154.945 107.412 155.49 107.611 155.678C107.811 155.865 108.016 156.023 108.227 156.152C109.152 156.703 109.615 157.195 109.615 157.629C109.615 158.543 109.158 159 108.244 159L105.59 158.877L102.021 159C101.424 159 100.955 158.883 100.615 158.648C100.275 158.414 100.105 158.062 100.105 157.594C100.105 156.633 101.172 156.152 103.305 156.152C103.434 156.152 103.562 156.152 103.691 156.152C103.82 156.152 103.949 156.146 104.078 156.135C103.762 155.678 103.434 155.098 103.094 154.395L101.301 150.738L97.9961 153.305C96.918 154.137 96.1152 154.875 95.5879 155.52C95.0605 156.152 94.5801 156.469 94.1465 156.469C93.7129 156.469 93.3672 156.363 93.1094 156.152C92.8633 155.941 92.6406 155.719 92.4414 155.484L91.7031 154.641C91.4922 154.395 91.2109 154.131 90.8594 153.85L88.1523 151.828C87.6016 151.43 87.0391 151.002 86.4648 150.545L83.8809 156.24H84.4082C85.5566 156.24 86.3887 156.346 86.9043 156.557C87.4199 156.756 87.6777 157.143 87.6777 157.717C87.6777 158.584 87.0801 159.018 85.8848 159.018L81.9121 158.859Z" fill="black"/>
<path d="M38.4023 191H37.3965L28.9395 178.324H28.8613C28.9395 179.835 28.9785 180.974 28.9785 181.742V191H28.0215V176.723H29.0176L37.4648 189.379H37.5234C37.4648 188.207 37.4355 187.094 37.4355 186.039V176.723H38.4023V191ZM52.9531 176.723V185.961C52.9531 187.595 52.4779 188.878 51.5273 189.809C50.5833 190.733 49.2682 191.195 47.582 191.195C45.9023 191.195 44.6003 190.733 43.6758 189.809C42.7513 188.884 42.2891 187.589 42.2891 185.922V176.723H43.2949V185.961C43.2949 187.328 43.6758 188.399 44.4375 189.174C45.1992 189.936 46.2669 190.316 47.6406 190.316C49.0143 190.316 50.0788 189.942 50.834 189.193C51.5827 188.445 51.957 187.4 51.957 186.059V176.723H52.9531ZM65.209 177.66H60.5703V191H59.5645V177.66H54.916V176.723H65.209V177.66ZM67.3379 176.723H70.7363C72.5007 176.723 73.806 177.048 74.6523 177.699C75.5052 178.35 75.9316 179.337 75.9316 180.658C75.9316 181.628 75.6745 182.439 75.1602 183.09C74.6523 183.741 73.8906 184.21 72.875 184.496L76.752 191H75.5605L71.8789 184.779H68.334V191H67.3379V176.723ZM68.334 177.621V183.92H71.0586C72.276 183.92 73.2103 183.65 73.8613 183.109C74.5189 182.569 74.8477 181.765 74.8477 180.697C74.8477 179.63 74.5221 178.852 73.8711 178.363C73.2266 177.868 72.1686 177.621 70.6973 177.621H68.334ZM80.2285 191H79.2324V176.723H80.2285V191Z" fill="black"/>
<circle cx="10" cy="184" r="3" fill="black"/>
<circle cx="99" cy="184" r="3" fill="black"/>
<path d="M54.5526 38.2247C50.8383 29.2788 47.7177 17.2724 54.7934 8.24853C61.2265 0.0463142 74.2185 -2.24263 85.1834 2.30127C80.0598 5.29989 77.287 15.92 72.0655 22.317C62.15 34.4684 56.3167 34.4584 54.5526 38.2247Z" fill="#509333"/>
<path d="M67.1637 8.97817C63.8752 11.6929 58.4887 16.0959 56.3837 23.3086C54.5475 29.5957 54.4126 34.9392 54.4905 38.0737C54.5115 38.1237 54.5325 38.1757 54.5525 38.2247C56.3167 34.4584 62.15 34.4684 72.0654 22.316C77.287 15.92 80.0587 5.29989 85.1834 2.30127C85.1294 2.28028 85.0754 2.26028 85.0214 2.23929C78.2426 1.44366 70.2573 6.42235 67.1637 8.97817Z" fill="#4B8932"/>
<path d="M56.3837 23.3086C58.4887 16.0959 63.8753 11.6929 67.1638 8.97819C70.2573 6.42237 78.2426 1.44368 85.0215 2.23931C74.0915 -2.21763 61.1955 0.086319 54.7935 8.24855C47.7567 17.2214 50.8043 29.1439 54.4906 38.0738C54.4126 34.9392 54.5476 29.5957 56.3837 23.3086Z" fill="#52A636"/>
<path d="M54.7185 42.2179C54.1757 38.2167 54.0168 34.1346 54.4966 30.0835C54.9654 26.0373 56.1748 22.0452 58.1489 18.4448C60.177 14.8765 62.9617 11.7569 66.2142 9.30108C69.4667 6.83622 73.098 4.94708 76.8653 3.49475C75.9757 3.97553 75.0831 4.4473 74.1885 4.90709C73.2789 5.34089 72.4533 5.93062 71.5887 6.43639C71.1609 6.70026 70.7191 6.93916 70.3023 7.21703L69.0729 8.08262L67.8464 8.94724C67.4446 9.2461 67.0758 9.58495 66.69 9.9018C63.6054 12.4266 60.9126 15.4412 59.0165 18.9306C57.0354 22.374 55.872 26.2422 55.2513 30.1854C55.1083 31.175 55.0054 32.1715 54.8804 33.166L54.7045 36.1726L54.6525 39.1913C54.6855 40.1978 54.7055 41.2063 54.7185 42.2179Z" fill="#2A5D2C"/>
<path d="M54.7365 19.2095C54.6835 20.349 54.9024 21.4574 55.1163 22.5589C55.3662 23.6414 55.6321 24.7709 56.0459 25.7335L55.5861 25.5506C56.2918 25.2817 56.9815 25.1367 57.6821 25.0098C58.3778 24.8779 59.0795 24.7949 59.7812 24.7209C60.4858 24.665 61.1905 24.631 61.8962 24.617C62.6009 24.623 63.3165 24.637 64.0082 24.7909C63.3035 24.8169 62.6159 24.9148 61.9262 25.0168C61.2365 25.1068 60.5488 25.2247 59.8641 25.3496C59.1784 25.4586 58.4968 25.5945 57.8191 25.7245C57.1474 25.8674 56.4607 26.0113 55.851 26.2242L55.5211 26.3402L55.3902 26.0403C55.1413 25.4696 55.0114 24.9108 54.8834 24.3451C54.7535 23.7814 54.6805 23.2096 54.6156 22.6389C54.5576 22.0662 54.4976 21.4934 54.5176 20.9167C54.5356 20.3429 54.5666 19.7592 54.7365 19.2095Z" fill="#2A5D2C"/>
<path d="M58.5388 11.63C58.6018 12.5525 58.7587 13.4471 58.9946 14.3107C59.2315 15.1703 59.5593 16.0029 60.0421 16.7036L59.6683 16.5517C61.2406 16.2368 62.7978 16.2488 64.3481 16.3328C65.8964 16.4377 67.4367 16.6756 68.925 17.1024C67.3817 17.0065 65.8534 16.9645 64.3281 16.9665C62.8098 16.9715 61.2705 17.0135 59.8162 17.2614L59.5693 17.3033L59.4424 17.1084C58.9016 16.2818 58.6228 15.3472 58.4798 14.4187C58.3459 13.4861 58.3539 12.5375 58.5388 11.63Z" fill="#2A5D2C"/>
<path d="M63.6993 5.67675C63.5674 7.55688 63.8612 9.427 64.7338 10.9833L64.347 10.8024C65.9243 10.5105 67.4826 10.5355 69.0348 10.6415C69.8105 10.7084 70.5831 10.8024 71.3478 10.9573C72.1074 11.1212 72.8681 11.3131 73.5787 11.624C72.0574 11.3521 70.5291 11.3002 69.0058 11.2742C67.4875 11.2592 65.9453 11.2862 64.4849 11.513L64.2151 11.555L64.0981 11.3311C63.1716 9.56794 63.0796 7.46693 63.6993 5.67675Z" fill="#2A5D2C"/>
<path d="M71.2057 2.94298C71.1038 3.57069 71.0198 4.19139 70.9689 4.80811C70.9349 5.42083 70.9179 6.05254 71.0688 6.59029L70.7729 6.41537C71.7165 6.18848 72.691 6.11151 73.6556 6.15649C74.6182 6.22245 75.5767 6.39439 76.4663 6.74923C75.5188 6.63428 74.5822 6.56131 73.6486 6.5973C72.717 6.61429 71.7915 6.72122 70.8829 6.90614L70.642 6.95612L70.586 6.73122C70.4151 6.04454 70.4961 5.38984 70.618 4.76013C70.739 4.13042 70.9369 3.51971 71.2057 2.94298Z" fill="#2A5D2C"/>
<path d="M80.1637 27.8195C68.1882 27.8195 58.0939 35.8488 54.9504 46.8137C51.8078 35.8488 41.7135 27.8195 29.738 27.8195C15.2507 27.8195 3.5061 39.5641 3.5061 54.0514C3.5061 77.5335 24.0356 95.1844 39.1576 105.003C38.5239 103.092 37.3435 100.504 36.7638 98.8847C34.07 91.3552 33.1384 86.8193 33.4083 81.4617H33.4113L33.6432 54.3183C33.6472 53.7285 34.127 53.2528 34.7167 53.2528C35.3134 53.2528 35.7952 53.7385 35.7912 54.3343L36.3789 81.8675C36.9387 82.0495 37.7363 82.1504 38.6309 81.7916L39.1526 54.3233C39.1546 53.7315 39.6344 53.2528 40.2271 53.2528C40.8209 53.2528 41.3027 53.7345 41.3017 54.3293L41.6845 81.7856C42.2132 81.9815 43.0918 82.1184 44.3173 81.7256L44.6611 54.3293C44.6611 53.7345 45.1409 53.2528 45.7356 53.2528C46.3273 53.2528 46.8081 53.7315 46.8101 54.3233L47.2909 81.6966C47.8226 81.8286 48.6273 81.9325 49.5848 81.7556L50.1706 54.3343C50.1666 53.7385 50.6493 53.2528 51.2451 53.2528C51.8348 53.2528 52.3156 53.7285 52.3206 54.3183L52.5575 82.2374H52.5505C52.7734 89.463 52.7893 93.1603 50.2215 98.3199C48.9931 100.788 46.8011 105.609 46.8011 106.883C46.8011 107.134 46.7991 108.152 46.7971 109.618C51.6829 112.355 54.9504 113.79 54.9504 113.79C54.9504 113.79 58.3518 112.39 63.4005 109.661C60.6347 105.316 56.2158 101.679 57.0294 91.656C58.7086 70.9586 61.0046 53.9115 68.1453 52.717C68.7 52.625 69.2128 53.0349 69.2128 53.5976V106.319C84.4377 97.0315 106.396 79.2687 106.396 54.0514C106.396 39.5641 94.651 27.8195 80.1637 27.8195Z" fill="#3A6A2B"/>
<path d="M70.1323 108.608C80.8013 101.962 90.8167 93.95 98.3992 83.8726C102.173 78.8509 105.283 73.2905 107.221 67.3103C107.655 65.802 108.041 64.2807 108.453 62.7664C108.73 61.2231 108.957 59.6698 109.213 58.1225C109.344 56.5602 109.39 54.991 109.484 53.4247C109.539 52.642 109.429 51.8624 109.41 51.0808C109.401 50.2971 109.272 49.5245 109.147 48.7528C108.668 45.6683 107.696 42.6497 106.208 39.8969C104.709 37.1522 102.754 34.6634 100.447 32.5593C98.1403 30.4563 95.4885 28.7291 92.6149 27.4997C89.7292 26.2982 86.6486 25.5945 83.5361 25.3996C77.3039 24.9628 70.9609 26.783 65.8822 30.4023C60.7846 33.9967 56.9604 39.3542 55.2511 45.3534L54.9493 46.4109L54.6504 45.3534C52.9752 39.4471 49.2419 34.1596 44.2612 30.5702C39.2975 26.9559 33.0944 25.0798 26.9552 25.3686C20.7961 25.5226 14.7918 27.9974 10.109 31.9616C5.38816 35.9288 2.17866 41.5632 0.93124 47.5824L0.579401 49.8643C0.483445 50.627 0.484423 51.3996 0.432447 52.1673C0.356482 52.9349 0.434459 53.7075 0.470442 54.4772L0.591382 56.7901C0.595381 57.5638 0.762312 58.3214 0.87526 59.0851L1.24108 61.372C1.32604 62.1417 1.59393 62.8733 1.77184 63.624L2.36656 65.8629C4.16273 71.7842 7.15935 77.2957 10.8097 82.2853C18.1403 92.3007 27.8248 100.374 38.14 107.207C27.7688 100.457 18.0083 92.4616 10.5648 82.4643C6.87348 77.4706 3.84888 71.9301 2.01973 65.9689L1.414 63.7139C1.23108 62.9593 0.961217 62.2206 0.872259 61.445L0.496431 59.139C0.380485 58.3704 0.21057 57.6058 0.203573 56.8241L0.074629 54.4912C0.0366465 53.7135 -0.0433116 52.9359 0.0296547 52.1563C0.0806311 51.3776 0.0786262 50.593 0.173582 49.8183L0.523421 47.5024C1.77084 41.3882 5.01633 35.6539 9.80412 31.6068C14.5529 27.5616 20.6601 25.0238 26.9332 24.8489C33.1853 24.537 39.5204 26.4312 44.5961 30.1065C49.6897 33.7558 53.5209 39.1443 55.2501 45.1815H54.6504C56.4076 39.0473 60.3378 33.5868 65.5504 29.9325C70.744 26.2512 77.223 24.4151 83.569 24.8779C86.7386 25.0848 89.8761 25.8114 92.8098 27.0419C95.7314 28.3033 98.4262 30.0675 100.764 32.2125C103.104 34.3585 105.084 36.8933 106.598 39.687C108.103 42.4877 109.082 45.5563 109.56 48.6899C109.684 49.4735 109.812 50.2581 109.82 51.0528C109.838 51.8444 109.945 52.639 109.888 53.4287C109.791 55.0079 109.739 56.5912 109.601 58.1665C109.34 59.7268 109.106 61.293 108.821 62.8473C108.403 64.3726 108.009 65.9059 107.568 67.4222C105.596 73.4424 102.456 79.0299 98.6451 84.0575C90.9466 94.1159 80.8543 102.048 70.1323 108.608Z" fill="#4B8932"/>
<path d="M54.9504 46.8137C51.8078 35.8488 41.7135 27.8195 29.738 27.8195C15.2507 27.8195 3.5061 39.5641 3.5061 54.0514C3.5061 77.5335 24.0356 95.1844 39.1577 105.003C38.5239 103.092 37.3435 100.504 36.7638 98.8847C34.07 91.3552 33.1384 86.8193 33.4083 81.4617H33.4113L33.6432 54.3183C33.6472 53.7285 34.127 53.2528 34.7167 53.2528C35.3134 53.2528 35.7952 53.7385 35.7912 54.3343L36.3789 81.8675C36.9387 82.0495 37.7363 82.1504 38.6309 81.7916L39.1527 54.3233C39.1547 53.7316 39.6344 53.2528 40.2272 53.2528C40.8209 53.2528 41.3027 53.7345 41.3017 54.3293L41.6845 81.7856C42.2132 81.9815 43.0918 82.1184 44.3173 81.7256L44.6611 54.3293C44.6611 53.7345 45.1409 53.2528 45.7356 53.2528C46.3273 53.2528 46.8081 53.7316 46.8101 54.3233L47.2909 81.6966C47.8226 81.8286 48.6273 81.9325 49.5848 81.7556L50.1706 54.3343C50.1666 53.7385 50.6493 53.2528 51.2451 53.2528C51.8348 53.2528 52.3156 53.7285 52.3206 54.3183L52.5575 82.2374H52.5505C52.7734 89.463 52.7893 93.1603 50.2215 98.3199C48.9931 100.788 46.8011 105.609 46.8011 106.883C46.8011 107.134 46.7991 108.152 46.7971 109.618C51.6829 112.355 54.9504 113.79 54.9504 113.79C54.9504 113.79 54.9593 113.786 54.9613 113.786V46.7788C54.9573 46.7908 54.9534 46.8018 54.9504 46.8137Z" fill="#4B8932"/>
</svg>
