<svg width="225" height="233" viewBox="0 0 225 233" fill="none" xmlns="http://www.w3.org/2000/svg">
<path d="M112.137 78.8262C104.564 60.5856 98.2011 36.1044 112.628 17.7048C125.745 0.980423 152.236 -3.68674 174.594 5.57829C164.147 11.6925 158.493 33.3469 147.846 46.3905C127.629 71.1672 115.735 71.1468 112.137 78.8262Z" fill="#509333"/>
<path d="M137.851 19.1925C131.146 24.7279 120.163 33.7056 115.871 48.4122C112.127 61.2316 111.852 72.1271 112.011 78.5185C112.054 78.6204 112.096 78.7264 112.137 78.8262C115.734 71.1468 127.629 71.1672 147.846 46.3884C158.493 33.3469 164.144 11.6925 174.594 5.5783C174.484 5.5355 174.373 5.49471 174.263 5.45191C160.441 3.82961 144.159 13.9812 137.851 19.1925Z" fill="#4B8932"/>
<path d="M115.871 48.4123C120.163 33.7056 131.146 24.7279 137.852 19.1926C144.159 13.9812 160.441 3.82966 174.264 5.45195C151.977 -3.63577 125.682 1.06199 112.629 17.7048C98.2806 36.0005 104.495 60.3105 112.011 78.5185C111.852 72.1272 112.127 61.2317 115.871 48.4123Z" fill="#52A636"/>
<path d="M112.476 86.9684C111.369 78.81 111.045 70.4866 112.023 62.2263C112.979 53.9762 115.445 45.8362 119.47 38.4951C123.605 31.2192 129.283 24.8584 135.915 19.8509C142.547 14.8251 149.951 10.9731 157.633 8.01181C155.819 8.99212 153.999 9.95406 152.175 10.8916C150.32 11.7761 148.637 12.9786 146.874 14.0098C146.002 14.5479 145.101 15.035 144.251 15.6015L141.744 17.3665L139.243 19.1294C138.424 19.7388 137.672 20.4297 136.885 21.0758C130.596 26.224 125.105 32.3707 121.239 39.4856C117.2 46.5067 114.828 54.394 113.562 62.4342C113.27 64.4519 113.061 66.4838 112.806 68.5117L112.447 74.6422L112.341 80.7971C112.408 82.8495 112.449 84.9059 112.476 86.9684Z" fill="#2A5D2C"/>
<path d="M112.512 40.0542C112.404 42.3776 112.851 44.6378 113.287 46.8837C113.796 49.091 114.338 51.394 115.182 53.3566L114.245 52.9837C115.684 52.4354 117.09 52.1399 118.519 51.8811C119.937 51.612 121.368 51.4429 122.798 51.2921C124.235 51.1779 125.672 51.1086 127.111 51.0801C128.548 51.0923 130.007 51.1209 131.417 51.4347C129.981 51.4877 128.578 51.6874 127.172 51.8953C125.766 52.0788 124.364 52.3193 122.968 52.574C121.57 52.7962 120.18 53.0733 118.798 53.3383C117.428 53.6297 116.028 53.9232 114.785 54.3573L114.112 54.5937L113.845 53.9823C113.338 52.8186 113.073 51.6793 112.812 50.5258C112.547 49.3763 112.398 48.2105 112.266 47.0468C112.148 45.879 112.025 44.7112 112.066 43.5352C112.103 42.3653 112.166 41.1751 112.512 40.0542Z" fill="#2A5D2C"/>
<path d="M120.265 24.5995C120.394 26.4807 120.714 28.3047 121.195 30.0656C121.678 31.8183 122.346 33.5161 123.33 34.9447L122.568 34.6349C125.774 33.993 128.949 34.0174 132.11 34.1886C135.267 34.4026 138.408 34.8877 141.443 35.7579C138.296 35.5623 135.18 35.4767 132.07 35.4807C128.974 35.4909 125.835 35.5765 122.87 36.082L122.366 36.1676L122.108 35.7701C121.005 34.0847 120.436 32.1791 120.145 30.2857C119.872 28.3842 119.888 26.4501 120.265 24.5995Z" fill="#2A5D2C"/>
<path d="M130.788 12.4609C130.519 16.2945 131.118 20.1077 132.897 23.2809L132.108 22.912C135.324 22.3169 138.502 22.3679 141.667 22.5839C143.248 22.7205 144.824 22.912 146.383 23.2279C147.932 23.5622 149.483 23.9535 150.932 24.5873C147.83 24.033 144.714 23.927 141.608 23.874C138.512 23.8435 135.367 23.8985 132.389 24.3611L131.839 24.4467L131.601 23.9902C129.711 20.395 129.524 16.1111 130.788 12.4609Z" fill="#2A5D2C"/>
<path d="M146.093 6.88672C145.885 8.16662 145.714 9.43224 145.61 10.6897C145.541 11.9391 145.506 13.2271 145.814 14.3236L145.211 13.9669C147.135 13.5043 149.122 13.3474 151.089 13.4391C153.051 13.5736 155.006 13.9242 156.82 14.6477C154.887 14.4133 152.978 14.2645 151.074 14.3379C149.175 14.3725 147.288 14.5906 145.435 14.9676L144.944 15.0695L144.83 14.611C144.481 13.2108 144.646 11.8759 144.895 10.5919C145.141 9.30792 145.545 8.06268 146.093 6.88672Z" fill="#2A5D2C"/>
<path d="M164.359 57.6101C139.941 57.6101 119.358 73.9819 112.948 96.3394C106.541 73.9819 85.9584 57.6101 61.5404 57.6101C32.0007 57.6101 8.05344 81.5573 8.05344 111.097C8.05344 158.977 49.9132 194.967 80.7471 214.987C79.4549 211.09 77.048 205.814 75.8659 202.512C70.3733 187.16 68.4739 177.911 69.0241 166.987H69.0303L69.503 111.641C69.5112 110.439 70.4895 109.469 71.6919 109.469C72.9086 109.469 73.891 110.459 73.8828 111.674L75.0812 167.814C76.2226 168.185 77.8489 168.391 79.673 167.659L80.7369 111.651C80.7409 110.445 81.7192 109.469 82.9278 109.469C84.1384 109.469 85.1207 110.451 85.1187 111.664L85.8993 167.647C86.9774 168.047 88.7689 168.326 91.2675 167.525L91.9687 111.664C91.9687 110.451 92.9469 109.469 94.1596 109.469C95.3661 109.469 96.3464 110.445 96.3505 111.651L97.3308 167.466C98.415 167.735 100.056 167.947 102.008 167.586L103.202 111.674C103.194 110.459 104.179 109.469 105.393 109.469C106.596 109.469 107.576 110.439 107.586 111.641L108.069 168.568H108.055C108.51 183.301 108.542 190.84 103.306 201.361C100.802 206.393 96.3321 216.222 96.3321 218.821C96.3321 219.332 96.328 221.409 96.324 224.397C106.286 229.979 112.948 232.904 112.948 232.904C112.948 232.904 119.884 230.051 130.178 224.485C124.539 215.625 115.529 208.211 117.188 187.773C120.612 145.571 125.293 110.812 139.853 108.376C140.984 108.189 142.03 109.024 142.03 110.172V217.671C173.073 198.734 217.845 162.515 217.845 111.097C217.845 81.5573 193.898 57.6101 164.359 57.6101Z" fill="#3A6A2B"/>
<path d="M143.904 222.338C165.659 208.787 186.08 192.45 201.541 171.903C209.236 161.663 215.577 150.326 219.529 138.132C220.413 135.056 221.2 131.954 222.04 128.867C222.606 125.72 223.069 122.553 223.591 119.398C223.858 116.212 223.951 113.013 224.143 109.819C224.255 108.223 224.031 106.634 223.992 105.04C223.974 103.442 223.711 101.867 223.456 100.293C222.48 94.0037 220.497 87.8488 217.462 82.2359C214.407 76.6394 210.421 71.5647 205.717 67.2745C201.013 62.9865 195.606 59.4647 189.746 56.9579C183.863 54.5081 177.581 53.0733 171.235 52.6759C158.527 51.7853 145.594 55.4966 135.239 62.8764C124.844 70.2053 117.047 81.1293 113.562 93.3617L112.946 95.518L112.337 93.3617C108.921 81.3188 101.309 70.5375 91.1532 63.2188C81.0322 55.8492 68.384 52.0237 55.8662 52.6127C43.3076 52.9266 31.065 57.9728 21.5167 66.0558C11.8909 74.1448 5.34672 85.6334 2.80322 97.9066L2.08582 102.56C1.89017 104.115 1.89216 105.69 1.78618 107.255C1.63129 108.82 1.79028 110.396 1.86365 111.965L2.11025 116.681C2.1184 118.259 2.45878 119.804 2.68908 121.361L3.43499 126.024C3.60823 127.593 4.15444 129.085 4.51721 130.615L5.72985 135.181C9.39225 147.254 15.5024 158.492 22.9454 168.666C37.8925 189.087 57.6393 205.549 78.6721 219.481C57.5251 205.718 37.6235 189.416 22.446 169.031C14.9195 158.849 8.7523 147.552 5.02265 135.397L3.78757 130.799C3.41461 129.26 2.86434 127.754 2.68296 126.172L1.91664 121.471C1.68023 119.903 1.33377 118.344 1.31951 116.751L1.05659 111.994C0.979141 110.408 0.816106 108.822 0.964885 107.233C1.06883 105.645 1.06474 104.045 1.25835 102.466L1.97168 97.7436C4.51518 85.2767 11.1327 73.5844 20.8951 65.3323C30.5779 57.0842 43.0305 51.9096 55.8214 51.5529C68.5694 50.9171 81.4867 54.7792 91.8359 62.2731C102.222 69.7141 110.034 80.7013 113.56 93.0112H112.337C115.92 80.5036 123.933 69.3697 134.562 61.9185C145.152 54.4123 158.362 50.6684 171.302 51.612C177.765 52.0339 184.162 53.5156 190.144 56.0244C196.101 58.5965 201.596 62.1936 206.363 66.5673C211.134 70.943 215.171 76.1116 218.259 81.808C221.326 87.5186 223.324 93.7755 224.298 100.165C224.55 101.763 224.811 103.362 224.828 104.983C224.864 106.597 225.082 108.217 224.966 109.827C224.769 113.047 224.663 116.276 224.381 119.488C223.849 122.669 223.372 125.863 222.792 129.032C221.938 132.142 221.135 135.268 220.236 138.36C216.215 150.635 209.813 162.028 202.042 172.28C186.345 192.789 165.767 208.963 143.904 222.338Z" fill="#4B8932"/>
<path d="M112.948 96.3394C106.541 73.9819 85.9584 57.6101 61.5404 57.6101C32.0007 57.6101 8.05344 81.5573 8.05344 111.097C8.05344 158.977 49.9132 194.967 80.7471 214.987C79.4549 211.09 77.048 205.814 75.8659 202.512C70.3734 187.16 68.4739 177.911 69.0241 166.987H69.0303L69.5031 111.641C69.5112 110.439 70.4895 109.469 71.6919 109.469C72.9087 109.469 73.891 110.459 73.8829 111.674L75.0813 167.814C76.2226 168.185 77.849 168.391 79.673 167.659L80.7369 111.651C80.741 110.445 81.7192 109.469 82.9278 109.469C84.1384 109.469 85.1208 110.451 85.1187 111.664L85.8993 167.647C86.9774 168.047 88.7689 168.326 91.2675 167.525L91.9687 111.664C91.9687 110.451 92.9469 109.469 94.1596 109.469C95.3661 109.469 96.3464 110.445 96.3505 111.651L97.3308 167.466C98.415 167.735 100.056 167.947 102.008 167.586L103.202 111.674C103.194 110.459 104.179 109.469 105.393 109.469C106.596 109.469 107.576 110.439 107.586 111.641L108.069 168.568H108.055C108.51 183.301 108.542 190.84 103.306 201.361C100.802 206.393 96.3321 216.222 96.3321 218.821C96.3321 219.332 96.328 221.409 96.324 224.397C106.286 229.979 112.948 232.904 112.948 232.904C112.948 232.904 112.967 232.896 112.971 232.896V96.2681C112.963 96.2925 112.955 96.3149 112.948 96.3394Z" fill="#4B8932"/>
</svg>
