<?xml version="1.0" standalone="no"?>
<!DOCTYPE svg PUBLIC "-//W3C//DTD SVG 20010904//EN"
 "http://www.w3.org/TR/2001/REC-SVG-20010904/DTD/svg10.dtd">
<svg version="1.0" xmlns="http://www.w3.org/2000/svg"
 width="912.000000pt" height="912.000000pt" viewBox="0 0 912.000000 912.000000"
 preserveAspectRatio="xMidYMid meet">
<metadata>
Created by potrace 1.14, written by Peter Selinger 2001-2017
</metadata>
<g transform="translate(0.000000,912.000000) scale(0.100000,-0.100000)"
fill="#000000" stroke="none">
<path d="M5859 9116 c-2 -2 -31 -6 -64 -10 -89 -9 -138 -16 -155 -21 -8 -2
-31 -7 -50 -10 -73 -12 -268 -69 -325 -95 -11 -5 -45 -19 -75 -32 -88 -35
-242 -119 -267 -144 -8 -7 -18 -14 -23 -14 -5 0 -15 -6 -22 -13 -7 -7 -29 -24
-48 -37 -65 -46 -185 -159 -256 -240 -84 -98 -234 -345 -234 -386 0 -8 -5 -14
-12 -14 -6 0 -8 -3 -5 -6 3 -4 1 -16 -4 -27 -14 -26 -75 -233 -84 -283 -18
-107 -29 -242 -29 -364 0 -108 10 -276 18 -320 3 -14 7 -43 10 -65 3 -22 8
-51 10 -65 16 -73 27 -130 32 -155 3 -16 7 -32 9 -35 2 -4 7 -22 10 -41 8 -47
93 -330 105 -351 6 -10 10 -23 10 -29 0 -6 20 -62 45 -126 45 -115 51 -140 61
-288 8 -115 10 -134 15 -139 3 -3 4 58 3 134 l-2 140 31 43 c35 48 34 47 108
110 31 26 61 47 67 47 6 0 12 4 14 8 2 5 59 45 128 90 69 45 130 85 135 89 6
5 26 20 45 33 43 30 34 23 165 127 61 48 130 106 155 128 74 66 322 316 377
380 28 33 62 71 74 85 12 14 47 57 78 95 31 39 59 72 62 75 11 9 127 185 174
265 72 122 180 325 316 595 23 47 46 87 49 90 4 3 10 14 13 24 13 34 156 270
182 300 14 16 25 32 25 35 1 18 144 166 198 203 41 28 47 48 16 48 -8 0 -22 4
-32 10 -18 10 -157 60 -182 65 -8 2 -53 13 -100 25 -46 12 -96 23 -110 25 -14
2 -43 7 -65 11 -22 3 -49 8 -60 9 -11 2 -20 4 -20 5 0 8 -507 24 -516 16z"/>
<path d="M2286 7132 c-2 -1 -32 -4 -67 -7 -140 -11 -160 -14 -326 -51 -101
-22 -227 -60 -278 -84 -11 -5 -49 -21 -85 -36 -106 -43 -263 -128 -364 -196
-55 -37 -175 -126 -200 -148 -112 -97 -201 -185 -286 -286 -66 -77 -200 -274
-200 -293 0 -5 -4 -11 -8 -13 -9 -3 -69 -117 -117 -223 -27 -58 -92 -231 -101
-267 -2 -10 -6 -26 -9 -35 -34 -128 -45 -177 -51 -223 -11 -87 -12 -95 -14
-95 -1 0 -5 -27 -8 -60 -12 -127 -4 -534 13 -630 3 -16 7 -43 9 -60 2 -16 7
-46 11 -65 8 -47 13 -76 20 -130 3 -25 11 -63 17 -85 6 -22 13 -49 15 -60 1
-11 10 -44 19 -72 9 -29 17 -58 18 -65 7 -31 20 -79 44 -153 14 -44 27 -82 27
-85 1 -3 7 -18 13 -33 7 -16 12 -31 12 -34 0 -3 16 -47 36 -97 57 -143 150
-337 242 -501 25 -44 50 -90 56 -102 6 -13 14 -23 19 -23 4 0 7 -5 7 -10 0
-13 170 -274 181 -278 5 -2 9 -8 9 -13 0 -10 58 -89 195 -264 178 -227 429
-495 711 -762 77 -72 194 -176 215 -191 10 -7 30 -25 46 -40 16 -15 46 -40 68
-57 21 -16 59 -49 84 -72 25 -23 48 -40 50 -37 4 4 -35 42 -105 99 -26 22 -56
48 -66 58 -10 9 -18 15 -18 13 0 -3 -13 8 -28 22 -15 15 -61 56 -102 92 -78
68 -520 504 -520 512 0 3 -18 25 -41 49 -22 24 -59 66 -82 93 -23 27 -49 57
-57 65 -21 23 -60 71 -90 111 -14 18 -30 38 -35 44 -21 23 -115 146 -115 151
0 4 -12 21 -45 59 -5 7 -14 19 -20 27 -5 8 -49 74 -96 145 -47 71 -108 165
-134 209 -51 83 -212 396 -258 500 -33 76 -113 290 -123 330 -4 17 -11 36 -17
43 -5 6 -6 12 -2 12 4 0 2 7 -5 15 -7 8 -10 15 -7 15 3 0 1 15 -4 33 -14 46
-17 57 -29 107 -6 25 -13 52 -17 60 -3 8 -6 18 -5 22 1 4 -2 18 -7 31 -5 13
-12 39 -15 58 -3 19 -7 43 -10 54 -4 19 -14 91 -21 143 -2 12 -9 54 -15 92 -6
38 -12 117 -13 175 -1 58 -5 105 -8 105 -6 0 -3 301 4 365 6 51 16 118 27 175
5 24 6 48 4 52 -3 5 0 8 7 8 7 0 10 3 7 6 -11 11 90 344 122 402 5 9 30 60 55
112 25 52 51 104 58 115 35 60 160 247 173 260 9 8 13 15 10 15 -16 0 262 285
322 330 19 14 39 30 45 35 34 29 101 76 182 127 49 32 96 62 103 68 6 6 12 8
12 4 0 -3 6 -1 14 5 34 29 291 143 300 134 3 -4 6 -1 6 5 0 7 3 11 8 10 4 -1
31 6 60 16 29 10 58 19 65 20 7 2 19 5 27 8 57 21 180 46 320 64 104 14 360
19 455 9 22 -2 65 -6 95 -9 30 -3 66 -8 80 -11 14 -3 41 -8 60 -11 19 -3 62
-12 95 -21 33 -8 70 -17 82 -19 89 -17 455 -169 475 -199 4 -5 8 -6 8 -1 0 5
8 2 18 -6 9 -8 37 -26 62 -40 52 -30 220 -149 265 -187 92 -80 272 -273 339
-362 43 -57 84 -112 92 -121 7 -10 11 -18 8 -18 -3 0 6 -15 20 -33 15 -19 26
-39 26 -44 0 -6 7 -16 15 -23 8 -7 15 -21 15 -31 0 -11 4 -19 9 -19 16 0 153
-317 165 -382 2 -15 10 -37 17 -50 7 -12 12 -24 11 -25 -1 -2 -2 -4 -1 -5 0
-2 2 -11 4 -21 6 -31 12 -30 24 4 6 18 13 30 16 27 3 -3 1 -16 -4 -29 -5 -13
-12 -33 -16 -44 -6 -17 -8 -16 -21 15 -8 19 -16 41 -18 50 -3 17 -4 20 -52
138 -38 92 -138 288 -155 302 -3 3 -18 25 -34 49 -15 25 -31 49 -36 55 -5 6
-37 47 -71 91 -65 84 -222 246 -296 305 -24 19 -53 43 -65 53 -12 10 -36 27
-54 38 -18 11 -33 26 -33 31 0 6 -3 8 -7 5 -3 -4 -21 4 -39 18 -18 14 -36 25
-40 25 -4 0 -15 6 -23 14 -37 32 -328 171 -380 181 -10 2 -34 10 -54 19 -20 8
-37 12 -37 9 0 -3 -7 0 -15 7 -9 7 -18 10 -22 7 -3 -4 -11 -3 -17 2 -18 14
-236 55 -361 68 -94 9 -460 4 -460 -7 0 -1 -13 -3 -30 -5 -16 -1 -30 -3 -30
-5 0 -1 -11 -3 -25 -4 -58 -7 -114 -19 -190 -41 -30 -9 -62 -18 -70 -20 -59
-14 -214 -76 -315 -125 -285 -139 -497 -311 -730 -591 -32 -38 -132 -184 -155
-226 -11 -21 -31 -56 -43 -78 -12 -22 -37 -74 -55 -115 -19 -41 -38 -84 -43
-95 -9 -22 -25 -64 -29 -80 -2 -5 -13 -39 -26 -75 -40 -117 -82 -337 -89 -479
-2 -36 -4 -66 -5 -66 -1 0 -3 -10 -4 -22 -2 -13 1 -23 5 -23 4 0 4 -13 -1 -29
-4 -16 -6 -31 -4 -33 2 -3 6 -63 9 -134 3 -71 7 -138 9 -149 2 -11 7 -51 11
-90 4 -38 9 -79 11 -90 9 -45 16 -81 19 -105 2 -14 13 -68 25 -120 12 -52 23
-102 25 -110 2 -8 4 -15 5 -15 1 0 3 -8 6 -17 102 -422 377 -964 717 -1413 38
-50 180 -229 191 -241 6 -6 34 -37 61 -70 153 -181 460 -487 665 -664 41 -36
77 -67 80 -70 3 -3 46 -39 95 -80 50 -41 92 -77 95 -80 3 -3 23 -18 45 -35 22
-16 42 -32 45 -35 3 -3 34 -28 70 -55 36 -28 67 -52 70 -55 3 -3 29 -23 59
-44 30 -21 59 -43 65 -48 35 -29 424 -298 432 -298 3 0 12 -7 21 -15 34 -34
24 7 -32 140 -7 17 -25 62 -39 100 -15 39 -33 84 -41 100 -26 58 -85 223 -85
237 0 8 -4 18 -9 23 -9 11 -81 235 -103 320 -7 28 -17 53 -23 57 -5 4 -7 10
-3 13 3 3 -5 44 -17 90 -13 45 -25 98 -28 116 -3 19 -8 48 -12 64 -36 183 -40
254 -38 710 3 884 14 2041 19 2075 8 58 40 78 115 71 9 0 24 -12 33 -26 17
-26 16 -7 31 -675 18 -795 26 -1197 29 -1409 2 -181 1 -179 73 -185 61 -5 113
13 114 38 2 49 18 863 24 1261 3 165 6 302 6 305 0 3 3 106 5 230 7 421 7 417
40 445 42 36 107 24 125 -24 11 -29 16 -203 24 -871 3 -256 7 -478 8 -495 1
-16 -2 -36 -7 -42 -4 -7 -5 -13 0 -13 5 0 10 -150 12 -333 4 -400 6 -474 14
-483 12 -12 135 -13 172 -2 l36 11 1 216 c1 119 3 365 5 546 2 182 7 515 9
740 10 772 7 721 38 748 15 12 38 24 52 25 29 2 70 -21 81 -46 7 -17 11 -166
17 -670 3 -155 7 -285 10 -288 3 -3 2 -17 -3 -30 -5 -13 -6 -24 -2 -24 4 0 8
-102 8 -228 2 -315 14 -986 19 -990 8 -8 161 -13 172 -5 12 8 24 432 37 1245
2 124 7 232 11 239 6 8 4 10 -5 4 -9 -6 -11 -4 -5 5 7 11 12 188 17 595 1 80
6 129 15 148 15 30 49 48 79 42 11 -2 25 -4 31 -4 7 -1 20 -13 30 -27 18 -29
21 -176 26 -1316 1 -247 5 -448 8 -448 4 0 3 -15 -1 -34 -4 -19 -5 -39 -1 -44
9 -14 7 -1045 -2 -1117 -30 -241 -84 -416 -201 -650 -27 -55 -50 -102 -50
-105 -1 -3 -27 -63 -59 -134 -55 -122 -115 -272 -122 -307 -2 -9 -7 -32 -12
-50 -5 -19 -9 -87 -9 -153 l1 -118 60 -33 c33 -18 85 -46 115 -61 30 -16 57
-31 60 -34 5 -5 183 -94 338 -169 45 -22 82 -35 82 -30 0 5 3 8 8 7 9 -2 31 7
117 45 117 53 545 269 545 276 0 5 -183 266 -207 296 -17 20 -73 106 -73 111
0 3 -9 18 -20 33 -48 68 -113 214 -151 341 -19 66 -25 87 -35 149 -3 18 -8 43
-10 55 -17 85 -23 330 -10 471 3 39 8 104 11 145 3 41 8 93 10 115 14 135 16
161 30 317 11 138 17 185 25 211 6 17 5 27 -1 27 -6 0 -8 3 -5 8 5 9 16 79 21
137 2 22 6 56 9 75 4 32 12 94 22 189 2 19 6 50 9 70 9 54 16 102 20 141 2 19
6 44 8 55 3 11 8 40 11 65 3 25 8 56 10 70 7 39 27 152 31 178 2 12 6 30 9 40
3 9 7 35 11 57 3 21 19 98 36 170 17 71 32 137 34 145 2 8 4 15 5 15 1 0 3 8
5 18 2 10 13 51 25 90 12 40 23 77 25 82 1 6 5 19 9 30 5 11 17 45 28 75 60
164 153 332 235 425 27 31 109 95 120 95 6 0 16 6 22 14 10 11 27 17 76 26 2
1 18 5 35 10 25 7 35 5 58 -15 l27 -23 1 -2119 c1 -1784 3 -2117 15 -2115 18
5 133 75 137 85 2 4 8 7 14 7 5 0 24 11 42 25 18 14 36 25 40 25 4 0 30 17 59
38 29 20 60 42 69 47 9 6 51 34 95 64 43 30 92 64 108 75 17 12 34 27 38 34 4
6 12 12 17 12 8 0 148 101 187 135 7 5 33 26 59 45 91 69 313 251 384 316 142
129 198 182 325 309 170 170 255 262 370 400 28 33 53 62 58 63 4 2 7 10 7 18
0 8 3 14 8 14 4 0 32 33 62 73 30 39 58 74 62 75 5 2 8 10 8 17 0 7 4 15 8 17
5 2 28 32 53 68 24 36 46 67 49 70 3 3 20 28 38 55 17 28 35 55 40 60 9 12
126 210 152 258 26 47 134 261 135 267 1 3 11 25 22 50 78 174 178 455 198
560 2 8 8 35 15 60 7 25 14 54 16 65 13 56 35 174 40 205 2 19 7 45 9 57 7 29
22 177 29 273 5 68 6 330 2 385 -8 89 -18 180 -22 186 -2 4 -7 24 -10 45 -3
22 -7 44 -9 49 -55 241 -133 441 -244 624 -28 46 -51 88 -51 93 0 4 -4 8 -10
8 -5 0 -10 5 -10 10 0 6 -5 16 -10 23 -23 27 -46 56 -60 77 -18 27 -35 46
-113 134 -72 81 -163 168 -230 219 -16 12 -34 27 -40 32 -7 6 -28 22 -47 35
-19 13 -37 27 -40 30 -10 11 -140 90 -149 90 -5 0 -11 4 -13 8 -3 10 -219 115
-258 127 -14 4 -29 11 -35 15 -5 3 -62 21 -125 40 -63 18 -122 35 -130 38 -17
6 -21 7 -105 22 -147 26 -201 30 -380 30 -213 0 -267 -5 -455 -47 -63 -14
-153 -38 -200 -54 -47 -16 -89 -31 -95 -33 -5 -1 -23 -9 -40 -16 -16 -7 -32
-14 -35 -15 -24 -6 -56 -19 -60 -24 -3 -3 -42 -24 -87 -46 -46 -22 -83 -43
-83 -47 0 -5 -5 -8 -11 -8 -15 0 -169 -101 -169 -111 0 -4 -10 -11 -22 -15
-13 -4 -27 -12 -33 -19 -5 -6 -37 -34 -69 -61 -211 -175 -393 -407 -521 -664
-36 -73 -65 -136 -65 -143 0 -2 -8 -22 -17 -43 -9 -22 -16 -42 -15 -46 1 -5
-2 -8 -8 -8 -5 0 -10 4 -10 8 0 13 36 111 43 119 4 3 7 13 7 21 0 18 29 87 96
227 50 104 199 338 249 391 5 6 26 30 45 54 44 55 201 213 261 262 24 20 55
45 69 57 29 24 40 32 62 46 8 6 49 32 89 60 107 71 363 200 444 222 6 1 44 14
85 29 41 14 83 28 92 30 10 2 26 6 36 8 54 13 119 28 132 31 61 11 96 16 137
21 27 2 66 7 88 9 61 8 430 4 430 -5 0 -1 17 -3 38 -6 66 -6 210 -33 267 -50
30 -8 62 -16 70 -18 8 -1 22 -5 30 -9 8 -3 31 -10 50 -16 111 -31 326 -128
407 -182 23 -16 44 -29 48 -29 3 0 39 -22 79 -49 239 -162 459 -383 622 -628
57 -86 166 -291 201 -378 38 -96 70 -197 88 -278 2 -9 7 -22 10 -28 4 -5 9
-29 11 -52 3 -23 7 -49 11 -57 3 -8 7 -28 9 -44 2 -16 6 -41 9 -55 21 -102 26
-357 12 -591 -7 -122 -11 -159 -23 -210 -3 -14 -8 -43 -10 -65 -2 -22 -6 -51
-9 -65 -2 -13 -7 -40 -10 -60 -3 -20 -8 -47 -10 -60 -3 -14 -8 -41 -11 -60 -3
-19 -10 -43 -15 -53 -5 -9 -7 -17 -3 -17 3 0 1 -7 -6 -15 -7 -8 -10 -15 -7
-15 3 0 -1 -24 -9 -52 -8 -29 -17 -62 -20 -73 -8 -29 -10 -38 -17 -55 -3 -8
-13 -42 -22 -75 -17 -59 -73 -217 -102 -285 -8 -19 -19 -44 -23 -55 -18 -44
-212 -432 -230 -460 -26 -41 -41 -65 -67 -111 -49 -84 -115 -183 -213 -319
-27 -38 -58 -81 -67 -95 -10 -14 -20 -27 -23 -30 -3 -3 -21 -25 -40 -50 -19
-25 -40 -52 -47 -60 -23 -29 -118 -145 -128 -156 -5 -6 -37 -42 -70 -80 -145
-164 -325 -348 -500 -509 -60 -55 -119 -110 -132 -122 -13 -13 -26 -23 -28
-23 -2 0 -29 -25 -62 -55 -32 -30 -64 -55 -70 -55 -7 0 -13 -3 -13 -7 0 -5
-28 -30 -61 -58 -34 -27 -67 -54 -73 -60 -6 -6 -46 -37 -89 -69 -43 -33 -75
-61 -73 -63 3 -3 11 0 18 6 7 6 29 25 48 41 19 16 38 30 41 30 6 0 23 14 81
66 15 13 31 24 34 24 4 0 14 8 23 18 9 10 36 33 61 52 25 19 50 39 56 45 6 5
33 29 60 52 27 22 65 55 84 73 19 17 62 55 95 83 81 71 424 414 510 511 39 44
80 90 92 103 23 26 90 108 161 198 28 36 140 184 152 202 8 11 52 77 98 145
45 67 86 128 90 134 7 10 20 32 45 77 6 12 15 24 18 27 10 8 205 396 242 480
46 104 56 130 49 130 -4 0 -2 4 3 8 6 4 16 25 23 47 7 22 17 49 22 60 8 20 42
121 46 140 1 6 21 77 44 159 36 129 65 265 85 401 3 22 8 47 10 55 34 110 40
705 10 850 -3 14 -8 40 -11 59 -8 49 -21 106 -39 174 -6 19 -13 49 -19 75 -8
33 -65 188 -80 217 -8 16 -13 32 -10 37 3 4 2 8 -3 8 -4 0 -16 20 -26 44 -30
72 -186 336 -217 366 -3 3 -21 25 -40 50 -19 25 -42 54 -50 65 -40 51 -264
268 -335 325 -86 68 -196 143 -266 181 -24 13 -46 26 -49 29 -11 12 -199 100
-275 128 -27 10 -59 22 -70 27 -11 4 -24 9 -30 9 -5 1 -30 8 -55 16 -69 21
-239 58 -300 66 -19 3 -46 7 -60 9 -162 32 -508 21 -717 -21 -43 -9 -84 -16
-90 -17 -7 0 -13 -4 -13 -8 0 -4 -8 -6 -17 -4 -10 1 -22 0 -28 -4 -5 -3 -14
-6 -20 -6 -5 0 -44 -11 -85 -25 -41 -13 -78 -23 -82 -22 -5 1 -8 -3 -8 -10 0
-6 -3 -9 -6 -6 -5 6 -34 -5 -144 -54 -79 -35 -112 -52 -197 -100 -94 -53 -176
-108 -181 -120 -2 -4 -8 -8 -14 -8 -6 0 -24 -11 -42 -25 -17 -14 -44 -35 -60
-48 -74 -58 -252 -233 -312 -307 -16 -19 -31 -37 -34 -40 -3 -3 -17 -21 -30
-40 -24 -35 -36 -50 -55 -73 -6 -7 -22 -30 -35 -52 -13 -22 -26 -42 -29 -45
-4 -3 -12 -16 -20 -30 -103 -180 -145 -270 -198 -420 -14 -37 -18 -41 -24 -25
-4 11 -17 47 -30 80 -54 143 -213 444 -240 453 -5 2 -9 9 -9 16 0 7 -8 21 -17
32 -10 10 -31 37 -48 59 -262 352 -649 629 -1080 774 -127 42 -321 87 -416 96
-24 2 -44 4 -44 5 0 7 -372 20 -379 12z"/>
<path d="M2346 1166 c3 -8 13 -18 22 -21 10 -3 34 -21 55 -41 20 -19 37 -32
37 -27 0 4 -17 22 -37 38 -86 69 -83 67 -77 51z"/>
<path d="M2498 1045 c17 -14 33 -25 37 -25 3 0 -7 11 -23 25 -17 14 -33 25
-37 25 -3 0 7 -11 23 -25z"/>
<path d="M2550 1006 c0 -3 9 -10 20 -16 11 -6 20 -8 20 -6 0 3 -9 10 -20 16
-11 6 -20 8 -20 6z"/>
<path d="M6581 990 c-13 -11 -19 -20 -14 -20 6 0 18 9 28 20 23 25 17 25 -14
0z"/>
<path d="M6520 939 c-17 -13 -18 -17 -5 -10 33 17 51 31 40 31 -5 0 -21 -10
-35 -21z"/>
<path d="M2662 924 c10 -10 20 -16 22 -13 3 3 -5 11 -17 18 -21 13 -21 12 -5
-5z"/>
<path d="M6464 898 l-19 -23 23 19 c12 11 22 21 22 23 0 8 -8 2 -26 -19z"/>
<path d="M6384 838 l-19 -23 23 19 c12 11 22 21 22 23 0 8 -8 2 -26 -19z"/>
<path d="M6329 803 c-13 -16 -12 -17 4 -4 16 13 21 21 13 21 -2 0 -10 -8 -17
-17z"/>
</g>
</svg>
