<svg xmlns="http://www.w3.org/2000/svg" width="256" height="256" xml:space="preserve"><g style="stroke:none;stroke-width:0;stroke-dasharray:none;stroke-linecap:butt;stroke-linejoin:miter;stroke-miterlimit:10;fill:none;fill-rule:nonzero;opacity:1" transform="matrix(2.81 0 0 2.81 1.407 1.407)"><circle cx="45" cy="45" r="45" style="stroke:none;stroke-width:1px;stroke-dasharray:none;stroke-linecap:butt;stroke-linejoin:miter;stroke-miterlimit:10;fill:#0d5eaf;fill-rule:nonzero;opacity:1"/><rect x="-10" y="-20" rx="0" ry="0" width="130" height="110" style="stroke:none;stroke-width:1px;stroke-dasharray:none;stroke-linecap:butt;stroke-linejoin:miter;stroke-miterlimit:10;fill:none;fill-rule:nonzero;opacity:1"/><path d="M87.429 30H50v10h39.717a44.75 44.75 0 0 0-2.288-10zM50 20h32.417a45.237 45.237 0 0 0-9.144-10H50v10z" style="stroke:none;stroke-width:1px;stroke-dasharray:none;stroke-linecap:butt;stroke-linejoin:miter;stroke-miterlimit:10;fill:#f3f4f5;fill-rule:nonzero;opacity:1"/><path d="M.283 50a44.75 44.75 0 0 0 2.288 10H87.43a44.75 44.75 0 0 0 2.288-10H30V30h20V20H30V2.571a44.857 44.857 0 0 0-10 5.012V20H7.583a44.814 44.814 0 0 0-5.012 10H20v20H.283zM7.583 70a45.237 45.237 0 0 0 9.144 10h56.546a45.237 45.237 0 0 0 9.144-10H7.583z" style="stroke:none;stroke-width:1px;stroke-dasharray:none;stroke-linecap:butt;stroke-linejoin:miter;stroke-miterlimit:10;fill:#f3f4f5;fill-rule:nonzero;opacity:1"/></g></svg>