<svg width="225" height="233" fill="none" xmlns="http://www.w3.org/2000/svg"><path d="M112.137 78.826c-7.573-18.24-13.936-42.722.491-61.121C125.745.98 152.236-3.687 174.594 5.578c-10.447 6.115-16.101 27.769-26.748 40.813-20.217 24.776-32.111 24.756-35.709 32.435Z" fill="#509333"/><path d="M137.851 19.192c-6.705 5.536-17.688 14.514-21.98 29.22-3.744 12.82-4.019 23.715-3.86 30.107.043.101.085.207.126.307 3.597-7.68 15.492-7.659 35.709-32.438 10.647-13.041 16.298-34.695 26.748-40.81-.11-.043-.221-.083-.331-.126-13.822-1.622-30.104 8.53-36.412 13.74Z" fill="#4B8932"/><path d="M115.871 48.412c4.292-14.706 15.275-23.684 21.981-29.22 6.307-5.21 22.589-15.362 36.412-13.74-22.287-9.088-48.582-4.39-61.635 12.253-14.348 18.296-8.134 42.605-.618 60.814-.159-6.392.116-17.287 3.86-30.107Z" fill="#52A636"/><path d="M112.476 86.968c-1.107-8.158-1.431-16.481-.453-24.742.956-8.25 3.422-16.39 7.447-23.73 4.135-7.277 9.813-13.638 16.445-18.645 6.632-5.026 14.036-8.878 21.718-11.84a298.74 298.74 0 0 1-5.458 2.88c-1.855.885-3.538 2.088-5.301 3.119-.872.538-1.773 1.025-2.623 1.591l-2.507 1.765-2.501 1.763c-.819.61-1.571 1.3-2.358 1.947-6.289 5.148-11.78 11.295-15.646 18.41-4.039 7.02-6.411 14.908-7.677 22.948-.292 2.018-.501 4.05-.756 6.078l-.359 6.13-.106 6.155c.067 2.053.108 4.109.135 6.171Z" fill="#2A5D2C"/><path d="M112.512 40.054c-.108 2.324.339 4.584.775 6.83.509 2.207 1.051 4.51 1.895 6.473l-.937-.373c1.439-.549 2.845-.844 4.274-1.103 1.418-.269 2.849-.438 4.279-.589a72.548 72.548 0 0 1 4.313-.212c1.437.012 2.896.04 4.306.355-1.436.053-2.839.252-4.245.46a84.104 84.104 0 0 0-4.204.679c-1.398.222-2.788.5-4.17.764-1.37.292-2.77.585-4.013 1.02l-.673.236-.267-.612c-.507-1.163-.772-2.303-1.033-3.456-.265-1.15-.414-2.316-.546-3.48-.118-1.167-.241-2.335-.2-3.51.037-1.17.1-2.36.446-3.482ZM120.265 24.6c.129 1.88.449 3.705.93 5.466.483 1.752 1.151 3.45 2.135 4.879l-.762-.31c3.206-.642 6.381-.618 9.542-.446 3.157.214 6.298.699 9.333 1.569a147.753 147.753 0 0 0-9.373-.277c-3.096.01-6.235.096-9.2.601l-.504.086-.258-.398c-1.103-1.685-1.672-3.59-1.963-5.484-.273-1.902-.257-3.836.12-5.687ZM130.788 12.46c-.269 3.834.33 7.648 2.109 10.82l-.789-.368c3.216-.595 6.394-.544 9.559-.328 1.581.137 3.157.328 4.716.644 1.549.334 3.1.725 4.549 1.36-3.102-.555-6.218-.661-9.324-.714-3.096-.03-6.241.024-9.219.487l-.55.086-.238-.457c-1.89-3.595-2.077-7.879-.813-11.53ZM146.093 6.887a48.835 48.835 0 0 0-.483 3.803c-.069 1.25-.104 2.537.204 3.634l-.603-.357c1.924-.463 3.911-.62 5.878-.528 1.962.135 3.917.485 5.731 1.209-1.933-.235-3.842-.383-5.746-.31a31.136 31.136 0 0 0-5.639.63l-.491.101-.114-.458c-.349-1.4-.184-2.735.065-4.02.246-1.283.65-2.528 1.198-3.704Z" fill="#2A5D2C"/><path d="M164.359 57.61c-24.418 0-45.001 16.372-51.411 38.73-6.407-22.358-26.99-38.73-51.408-38.73-29.54 0-53.487 23.947-53.487 53.487 0 47.88 41.86 83.87 72.694 103.89-1.292-3.897-3.699-9.173-4.881-12.475-5.493-15.352-7.392-24.601-6.842-35.525h.006l.473-55.346a2.19 2.19 0 0 1 4.38.033l1.198 56.14a6.637 6.637 0 0 0 4.592-.155l1.064-56.008a2.19 2.19 0 0 1 4.382.013l.78 55.983c1.078.4 2.87.679 5.368-.122l.702-55.861a2.19 2.19 0 0 1 4.382-.013l.98 55.815a11.11 11.11 0 0 0 4.677.12l1.194-55.912a2.192 2.192 0 0 1 4.384-.033l.483 56.927h-.014c.455 14.733.487 22.272-4.749 32.793-2.504 5.032-6.974 14.861-6.974 17.46l-.008 5.576c9.962 5.582 16.624 8.507 16.624 8.507s6.936-2.853 17.23-8.419c-5.639-8.86-14.649-16.274-12.99-36.712 3.424-42.202 8.105-76.961 22.665-79.397 1.131-.187 2.177.648 2.177 1.796v107.499c31.043-18.937 75.815-55.156 75.815-106.574 0-29.54-23.947-53.487-53.486-53.487Z" fill="#3A6A2B"/><path d="M143.904 222.338c21.755-13.551 42.176-29.888 57.637-50.435 7.695-10.24 14.036-21.577 17.988-33.771.884-3.076 1.671-6.178 2.511-9.265.566-3.147 1.029-6.314 1.551-9.469.267-3.186.36-6.385.552-9.579.112-1.596-.112-3.185-.151-4.779-.018-1.598-.281-3.173-.536-4.747-.976-6.29-2.959-12.444-5.994-18.057a57.72 57.72 0 0 0-11.745-14.962c-4.704-4.288-10.111-7.81-15.971-10.316-5.883-2.45-12.165-3.885-18.511-4.282-12.708-.89-25.641 2.82-35.996 10.2-10.395 7.33-18.192 18.253-21.677 30.486l-.616 2.156-.609-2.156c-3.416-12.043-11.028-22.825-21.184-30.143-10.12-7.37-22.769-11.195-35.287-10.606-12.558.314-24.801 5.36-34.35 13.443-9.625 8.089-16.17 19.577-18.713 31.85l-.717 4.654c-.196 1.555-.194 3.13-.3 4.695-.155 1.565.004 3.141.078 4.71l.246 4.716c.008 1.578.349 3.123.58 4.68l.745 4.663c.173 1.569.72 3.061 1.082 4.591l1.213 4.566c3.662 12.073 9.772 23.311 17.215 33.485 14.947 20.421 34.694 36.883 55.727 50.815-21.147-13.763-41.048-30.065-56.226-50.45-7.527-10.182-13.694-21.479-17.423-33.634l-1.235-4.598c-.373-1.539-.924-3.045-1.105-4.627l-.766-4.701c-.237-1.568-.583-3.127-.597-4.72l-.263-4.757c-.078-1.586-.24-3.172-.092-4.761.104-1.588.1-3.188.293-4.767l.714-4.722c2.543-12.467 9.16-24.16 18.923-32.412 9.683-8.248 22.136-13.422 34.926-13.78 12.748-.635 25.666 3.227 36.015 10.721 10.386 7.441 18.198 18.428 21.724 30.738h-1.223c3.583-12.507 11.596-23.641 22.225-31.092 10.59-7.507 23.8-11.25 36.74-10.307a58.69 58.69 0 0 1 18.842 4.412c5.957 2.572 11.452 6.17 16.219 10.543a58.643 58.643 0 0 1 11.896 15.241c3.067 5.71 5.065 11.967 6.039 18.357.252 1.598.513 3.197.53 4.818.036 1.614.254 3.234.138 4.844-.197 3.22-.303 6.449-.585 9.661-.532 3.181-1.009 6.375-1.589 9.544-.854 3.11-1.657 6.236-2.556 9.328-4.021 12.275-10.423 23.668-18.194 33.92-15.697 20.509-36.275 36.683-58.138 50.058Z" fill="#4B8932"/><path d="M112.948 96.34c-6.407-22.358-26.99-38.73-51.408-38.73-29.54 0-53.487 23.947-53.487 53.487 0 47.88 41.86 83.87 72.694 103.89-1.292-3.897-3.699-9.173-4.881-12.475-5.493-15.352-7.392-24.601-6.842-35.525h.006l.473-55.346a2.19 2.19 0 0 1 4.38.033l1.198 56.14a6.637 6.637 0 0 0 4.592-.155l1.064-56.008a2.19 2.19 0 0 1 4.382.013l.78 55.983c1.078.4 2.87.679 5.368-.122l.702-55.861a2.19 2.19 0 0 1 4.382-.013l.98 55.815a11.11 11.11 0 0 0 4.677.12l1.194-55.912a2.192 2.192 0 0 1 4.384-.033l.483 56.927h-.014c.455 14.733.487 22.272-4.749 32.793-2.504 5.032-6.974 14.861-6.974 17.46l-.008 5.576c9.962 5.582 16.624 8.507 16.624 8.507s.019-.008.023-.008V96.268l-.023.071Z" fill="#4B8932"/></svg>