<svg width="110" height="197" fill="none" xmlns="http://www.w3.org/2000/svg"><path d="M26.928 131.877c1.09 0 1.634.422 1.634 1.266 0 .75-.41 1.195-1.23 1.336-.504.093-.867.251-1.09.474-.48.469-1.207 1.84-2.18 4.113-4.57 10.793-6.984 16.524-7.242 17.192l-.597 1.494c-.446 1.113-.996 1.67-1.653 1.67-.55 0-.966-.123-1.248-.369-.27-.235-.492-.61-.668-1.125l-3.146-7.805-4.658-10.881c-.926-2.168-1.594-3.48-2.004-3.937-.399-.457-.838-.774-1.319-.95-.48-.187-.808-.375-.984-.562-.176-.188-.264-.434-.264-.738 0-.305.147-.58.44-.826.281-.258.644-.387 1.09-.387l2.496.123c.386 0 .773-.018 1.16-.053l2.11-.193a9.523 9.523 0 0 1 1.071-.053c.422 0 .797.123 1.125.369.329.235.493.586.493 1.055 0 1.055-.99 1.582-2.971 1.582h-.738l7.611 19.494c.129.293.258.393.387.299a.778.778 0 0 0 .263-.299l7.612-19.477a6.291 6.291 0 0 1-.457.018h-.44c-1.066 0-1.828-.158-2.285-.475-.457-.328-.685-.709-.685-1.142 0-.445.17-.791.51-1.037a1.892 1.892 0 0 1 1.142-.387c.422 0 .773.023 1.055.07.293.035.591.071.896.106.316.023.65.058 1.002.105.363.035.814.053 1.354.053l2.408-.123Zm23.326 20.496c.832 0 1.248.428 1.248 1.283 0 .41-.164.826-.492 1.248a11.602 11.602 0 0 0-1.81 3.428l-.212.668c-.14.516-.246.955-.316 1.318-.059.375-.217.657-.475.844-.246.188-.545.281-.896.281-.34 0-.65-.158-.932-.474-.27-.317-.404-.598-.404-.844v-.492c0-.059.006-.117.017-.176-1.417-.246-2.97-.369-4.658-.369a140.952 140.952 0 0 0-4.57-.088c-1.266 0-2.444.047-3.533.141-1.078.093-1.834.14-2.268.14-1.031 0-1.547-.48-1.547-1.441 0-.668.551-1.125 1.653-1.371a6.428 6.428 0 0 1 1.353-.123h1.46v-21.727h-.687c-2.238 0-3.357-.539-3.357-1.617 0-.891.815-1.336 2.444-1.336l7.875.246c2.109 0 3.89-.129 5.343-.387a1.985 1.985 0 0 1-.088-.597c0-.223.112-.44.334-.651.223-.222.545-.334.967-.334 1.055 0 2.244 1.811 3.569 5.432.246.68.369 1.195.369 1.547 0 .808-.364 1.213-1.09 1.213-.645 0-1.184-.627-1.617-1.881-.27-.774-.703-1.313-1.301-1.617-.586-.317-1.336-.475-2.25-.475h-.44c-.609 0-1.324.035-2.144.106-.82.07-1.47.123-1.951.158l-1.46.105c-.48.035-.896.065-1.247.088v7.735c2.812 0 4.418-.036 4.816-.106.398-.082.691-.199.879-.352.187-.164.316-.468.387-.914.082-.457.27-.791.562-1.002.293-.222.592-.334.897-.334.304 0 .568.094.79.282.235.176.352.427.352.756 0 .316-.105.755-.316 1.318a4.775 4.775 0 0 0-.317 1.687c0 .551.106 1.102.317 1.653l.457 1.265c.117.293.176.622.176.985 0 .351-.135.633-.405.844-.258.21-.58.316-.966.316-.762 0-1.237-.492-1.424-1.477-.176-.984-.375-1.617-.598-1.898-.223-.293-.621-.439-1.195-.439H37.14v11.408c.504.011 1.007.029 1.511.052l1.565.071c.316.023.68.041 1.09.052.421.012.914.03 1.476.053a49.38 49.38 0 0 0 2.022.035c.773 0 1.353-.129 1.74-.386.387-.258.867-.815 1.441-1.67.575-.867 1.008-1.448 1.301-1.741.293-.292.615-.439.967-.439Zm24.082-11.426c0-3.176-1.523-5.174-4.57-5.994-1.442-.375-3.633-.562-6.575-.562-1.007 0-1.722.011-2.144.035v12.92h3.445c5.192 0 8.303-1.213 9.334-3.639.34-.797.51-1.717.51-2.76ZM62.61 159l-3.252-.105c-.433 0-.773.005-1.02.017l-.773.035c-.445.035-.92.053-1.423.053-.493 0-.891-.123-1.196-.369-.304-.258-.457-.598-.457-1.02 0-.422.176-.767.528-1.037.363-.269.843-.404 1.441-.404h1.406v-21.463c-.879.176-1.57.264-2.074.264-.492 0-.92-.129-1.283-.387-.364-.27-.545-.568-.545-.896 0-1.043.603-1.641 1.81-1.793 1.22-.153 3.006-.229 5.362-.229 2.367 0 4.09.029 5.168.088 5.906.281 9.521 2.232 10.845 5.853.34.95.51 1.998.51 3.147 0 2.297-.691 4.225-2.074 5.783-1.371 1.559-3.328 2.584-5.871 3.076 1.137 1.875 2.074 3.182 2.812 3.92 1.383 1.383 2.73 2.209 4.043 2.479 1.313.269 2.069.685 2.268 1.248.058.187.088.433.088.738s-.153.592-.457.861c-.305.27-.739.405-1.301.405-1.242 0-2.338-.282-3.287-.844-1.7-1.008-3.07-2.121-4.113-3.34-1.043-1.219-2.104-2.93-3.182-5.133h-5.537v6.223h1.23c.82 0 1.395.146 1.723.439.328.282.492.569.492.862 0 1.019-.627 1.529-1.88 1.529Zm25.348-10.74c2.59 1.992 4.037 3.14 4.342 3.445l.633.65c.363.34.668.51.914.51s.463-.058.65-.176c.188-.128.41-.328.668-.597.27-.281.568-.557.897-.826l3.92-3.024-4.8-10.353a30.89 30.89 0 0 0-.755-1.565c-.176-.351-.34-.527-.492-.527-.141 0-.288.129-.44.387-.14.246-.328.632-.562 1.16l-4.975 10.916Zm-6.047 10.599L79.31 159c-.913 0-1.37-.369-1.37-1.107 0-.481.38-1.014 1.142-1.6 1.36-1.078 2.625-2.754 3.797-5.027l6.117-12.305 2.18-4.623c.515-1.137.955-1.922 1.318-2.356.375-.445.85-.668 1.424-.668s1.055.194 1.441.581c.399.386.873 1.171 1.424 2.355l3.85 8.227c3.293 6.539 5.045 10.002 5.256 10.388l.65 1.178c.516.902.873 1.447 1.072 1.635.2.187.405.345.616.474.925.551 1.388 1.043 1.388 1.477 0 .914-.457 1.371-1.371 1.371l-2.654-.123-3.569.123c-.597 0-1.066-.117-1.406-.352-.34-.234-.51-.586-.51-1.054 0-.961 1.067-1.442 3.2-1.442h.386c.129 0 .258-.006.387-.017a13.216 13.216 0 0 1-.984-1.74l-1.793-3.657-3.305 2.567c-1.078.832-1.88 1.57-2.408 2.215-.527.632-1.008.949-1.441.949-.434 0-.78-.106-1.038-.317a5.942 5.942 0 0 1-.668-.668l-.738-.843a6.283 6.283 0 0 0-.844-.791l-2.707-2.022a45.82 45.82 0 0 1-1.687-1.283l-2.584 5.695h.527c1.149 0 1.98.106 2.496.317.516.199.774.586.774 1.16 0 .867-.598 1.301-1.793 1.301l-3.973-.159ZM38.402 191h-1.005l-8.457-12.676h-.079c.078 1.511.117 2.65.117 3.418V191h-.957v-14.277h.997l8.447 12.656h.058a67.008 67.008 0 0 1-.088-3.34v-9.316h.967V191Zm14.551-14.277v9.238c0 1.634-.475 2.917-1.426 3.848-.944.924-2.259 1.386-3.945 1.386-1.68 0-2.982-.462-3.906-1.386-.925-.925-1.387-2.22-1.387-3.887v-9.199h1.006v9.238c0 1.367.38 2.438 1.142 3.213.762.762 1.83 1.142 3.204 1.142 1.373 0 2.438-.374 3.193-1.123.749-.748 1.123-1.793 1.123-3.134v-9.336h.996Zm12.256.937H60.57V191h-1.005v-13.34h-4.649v-.937h10.293v.937Zm2.129-.937h3.398c1.765 0 3.07.325 3.916.976.853.651 1.28 1.638 1.28 2.959 0 .97-.258 1.781-.772 2.432-.508.651-1.27 1.12-2.285 1.406L76.752 191h-1.191l-3.682-6.221h-3.545V191h-.996v-14.277Zm.996.898v6.299h2.725c1.217 0 2.151-.27 2.802-.811.658-.54.987-1.344.987-2.412 0-1.067-.326-1.845-.977-2.334-.644-.495-1.702-.742-3.174-.742h-2.363ZM80.228 191h-.996v-14.277h.996V191Z" fill="#000"/><circle cx="10" cy="184" r="3" fill="#000"/><circle cx="99" cy="184" r="3" fill="#000"/><path d="M54.553 38.225c-3.715-8.946-6.835-20.953.24-29.976C61.227.046 74.22-2.243 85.183 2.3 80.06 5.3 77.287 15.92 72.065 22.317 62.15 34.468 56.318 34.458 54.553 38.225Z" fill="#509333"/><path d="M67.164 8.978c-3.289 2.715-8.675 7.118-10.78 14.33-1.837 6.288-1.971 11.631-1.894 14.766l.063.15c1.764-3.766 7.597-3.756 17.512-15.908C77.287 15.92 80.06 5.3 85.183 2.301c-.054-.02-.108-.04-.162-.062-6.778-.795-14.764 4.183-17.857 6.74Z" fill="#4B8932"/><path d="M56.384 23.309c2.105-7.213 7.491-11.616 10.78-14.33 3.093-2.557 11.079-7.535 17.858-6.74C74.091-2.218 61.195.086 54.793 8.25c-7.036 8.972-3.989 20.895-.302 29.825-.078-3.135.057-8.478 1.893-14.765Z" fill="#52A636"/><path d="M54.718 42.218c-.542-4.001-.701-8.083-.221-12.135.468-4.046 1.678-8.038 3.652-11.638 2.028-3.569 4.813-6.688 8.065-9.144 3.253-2.465 6.884-4.354 10.651-5.806-.89.48-1.782.952-2.676 1.412-.91.434-1.736 1.024-2.6 1.53-.428.263-.87.502-1.287.78l-1.23.866-1.226.864c-.401.3-.77.638-1.156.955-3.085 2.525-5.777 5.54-7.673 9.029-1.982 3.443-3.145 7.311-3.766 11.254-.143.99-.246 1.987-.37 2.981l-.176 3.007-.052 3.018c.032 1.007.053 2.015.066 3.027Z" fill="#2A5D2C"/><path d="M54.736 19.21c-.052 1.139.166 2.247.38 3.349.25 1.082.516 2.212.93 3.174l-.46-.182c.706-.27 1.395-.414 2.096-.541a25.735 25.735 0 0 1 2.1-.29c.704-.055 1.409-.089 2.114-.103.705.006 1.42.02 2.112.174-.704.026-1.392.124-2.082.226-.69.09-1.377.208-2.062.333-.686.109-1.367.244-2.045.374-.672.143-1.358.287-1.968.5l-.33.116-.13-.3c-.25-.57-.38-1.13-.508-1.695a15.239 15.239 0 0 1-.267-1.706c-.058-.573-.118-1.146-.098-1.722.018-.574.049-1.158.218-1.708ZM58.539 11.63a13.7 13.7 0 0 0 .456 2.68c.236.86.564 1.693 1.047 2.394l-.374-.152c1.573-.315 3.13-.303 4.68-.22 1.548.106 3.089.344 4.577.77a72.455 72.455 0 0 0-4.597-.136c-1.518.005-3.058.047-4.512.295l-.247.042-.127-.195c-.54-.826-.82-1.76-.962-2.69a8.183 8.183 0 0 1 .059-2.788ZM63.7 5.677c-.133 1.88.161 3.75 1.034 5.306l-.387-.18c1.577-.293 3.136-.268 4.688-.162.776.067 1.548.161 2.313.316.76.164 1.52.356 2.23.667-1.52-.272-3.049-.324-4.572-.35-1.519-.015-3.06.012-4.521.239l-.27.042-.117-.224c-.926-1.763-1.018-3.864-.399-5.654ZM71.206 2.943a23.952 23.952 0 0 0-.237 1.865c-.034.613-.051 1.245.1 1.782l-.296-.175a10.292 10.292 0 0 1 2.883-.259c.962.066 1.92.238 2.81.593-.947-.115-1.884-.188-2.817-.152-.932.017-1.858.124-2.766.31l-.241.05-.056-.226c-.17-.686-.09-1.341.032-1.97.121-.63.319-1.241.588-1.818Z" fill="#2A5D2C"/><path d="M80.164 27.82c-11.976 0-22.07 8.029-25.214 18.994C51.808 35.849 41.714 27.82 29.738 27.82c-14.487 0-26.232 11.744-26.232 26.231 0 23.483 20.53 41.133 35.652 50.952-.634-1.911-1.815-4.499-2.394-6.118-2.694-7.53-3.626-12.066-3.356-17.423h.003l.232-27.144a1.073 1.073 0 1 1 2.148.016l.588 27.534c.56.181 1.357.282 2.252-.076l.522-27.469a1.074 1.074 0 0 1 2.149.006l.383 27.457c.528.195 1.407.332 2.632-.06l.344-27.397a1.075 1.075 0 0 1 2.15-.006l.48 27.374a5.45 5.45 0 0 0 2.294.059l.586-27.422a1.075 1.075 0 0 1 2.15-.016l.236 27.92h-.007c.223 7.225.24 10.922-2.328 16.082-1.229 2.468-3.42 7.289-3.42 8.563l-.005 2.735c4.886 2.737 8.153 4.172 8.153 4.172s3.402-1.4 8.45-4.129c-2.765-4.345-7.184-7.982-6.37-18.005 1.679-20.697 3.975-37.745 11.115-38.939.555-.092 1.068.318 1.068.88v52.722c15.225-9.288 37.183-27.05 37.183-52.268 0-14.487-11.745-26.232-26.232-26.232Z" fill="#3A6A2B"/><path d="M70.132 108.608c10.67-6.646 20.685-14.658 28.267-24.735 3.774-5.022 6.884-10.583 8.822-16.563.434-1.508.82-3.03 1.232-4.544.277-1.543.504-3.096.76-4.643.131-1.563.177-3.132.271-4.698.055-.783-.055-1.563-.074-2.344-.009-.784-.138-1.556-.263-2.328-.479-3.085-1.451-6.103-2.939-8.856a28.328 28.328 0 0 0-5.761-7.338 28.023 28.023 0 0 0-7.832-5.06 28.246 28.246 0 0 0-9.079-2.1c-6.232-.436-12.575 1.384-17.654 5.003-5.097 3.595-8.922 8.952-10.63 14.951l-.303 1.058-.299-1.058c-1.675-5.906-5.408-11.193-10.389-14.783-4.964-3.614-11.167-5.49-17.306-5.201-6.159.154-12.163 2.628-16.846 6.593-4.72 3.967-7.93 9.601-9.178 15.62L.58 49.864c-.096.763-.095 1.536-.147 2.303-.076.768.002 1.54.038 2.31l.121 2.313c.004.774.171 1.531.284 2.295l.366 2.287c.085.77.353 1.501.53 2.252l.596 2.239c1.796 5.921 4.792 11.433 8.443 16.422 7.33 10.016 17.015 18.089 27.33 24.922-10.371-6.75-20.132-14.745-27.575-24.743C6.873 77.471 3.849 71.93 2.02 65.97l-.606-2.255c-.183-.755-.453-1.493-.542-2.269l-.376-2.306C.38 58.37.211 57.606.204 56.824l-.13-2.333c-.037-.777-.117-1.555-.044-2.335.05-.778.049-1.563.144-2.338l.35-2.316c1.247-6.114 4.492-11.848 9.28-15.895 4.749-4.045 10.856-6.583 17.13-6.758 6.251-.312 12.586 1.582 17.662 5.258 5.094 3.649 8.925 9.037 10.654 15.075h-.6c1.758-6.135 5.688-11.595 10.9-15.25 5.194-3.68 11.673-5.517 18.019-5.054a28.78 28.78 0 0 1 9.24 2.164 28.747 28.747 0 0 1 13.788 12.645c1.506 2.8 2.485 5.87 2.963 9.003.124.784.252 1.568.26 2.363.018.791.125 1.586.068 2.376-.097 1.579-.149 3.162-.287 4.737-.261 1.56-.495 3.127-.78 4.681-.418 1.526-.812 3.059-1.253 4.575-1.972 6.02-5.112 11.608-8.923 16.636-7.698 10.058-17.79 17.99-28.513 24.55Z" fill="#4B8932"/><path d="M54.95 46.814C51.808 35.849 41.714 27.82 29.738 27.82c-14.487 0-26.232 11.744-26.232 26.231 0 23.483 20.53 41.133 35.652 50.952-.634-1.911-1.815-4.499-2.394-6.118-2.694-7.53-3.626-12.066-3.356-17.423h.003l.232-27.144a1.073 1.073 0 1 1 2.148.016l.588 27.534c.56.181 1.357.282 2.252-.076l.522-27.469a1.074 1.074 0 0 1 2.149.006l.383 27.457c.528.195 1.407.332 2.632-.06l.344-27.397a1.075 1.075 0 0 1 2.15-.006l.48 27.374a5.45 5.45 0 0 0 2.294.059l.586-27.422a1.075 1.075 0 0 1 2.15-.016l.236 27.92h-.007c.223 7.225.24 10.922-2.328 16.082-1.229 2.468-3.42 7.289-3.42 8.563l-.005 2.735c4.886 2.737 8.153 4.172 8.153 4.172l.011-.004V46.779c-.004.012-.008.023-.01.035Z" fill="#4B8932"/></svg>